<?xml version="1.0" encoding="UTF-8" standalone="no"?>
<svg
   xmlns:dc="http://purl.org/dc/elements/1.1/"
   xmlns:cc="http://creativecommons.org/ns#"
   xmlns:rdf="http://www.w3.org/1999/02/22-rdf-syntax-ns#"
   xmlns:svg="http://www.w3.org/2000/svg"
   xmlns="http://www.w3.org/2000/svg"
   xmlns:sodipodi="http://sodipodi.sourceforge.net/DTD/sodipodi-0.dtd"
   xmlns:inkscape="http://www.inkscape.org/namespaces/inkscape"
   width="408.96802"
   height="209.99309"
   viewBox="0 0 108.20612 55.560673"
   version="1.1"
   id="svg3166"
   inkscape:version="1.0.2 (1.0.2+r75+1)"
   sodipodi:docname="Galaga.svg">
  <defs
     id="defs3160">
    <clipPath
       id="clip127">
      <path
         d="m 890,474 h 83.62891 v 28.41016 H 890 Z m 0,0"
         id="path2791" />
    </clipPath>
    <clipPath
       id="clip118">
      <path
         d="m 1066,309.48047 h 93.7891 V 329 H 1066 Z m 0,0"
         id="path2758" />
    </clipPath>
    <clipPath
       id="clip119">
      <path
         d="m 1060,312 h 94 v 19.39062 h -94 z m 0,0"
         id="path2761" />
    </clipPath>
    <clipPath
       id="clip118-3">
      <path
         d="m 1066,309.48047 h 93.7891 V 329 H 1066 Z m 0,0"
         id="path2758-6" />
    </clipPath>
    <clipPath
       id="clip119-7">
      <path
         d="m 1060,312 h 94 v 19.39062 h -94 z m 0,0"
         id="path2761-5" />
    </clipPath>
    <clipPath
       id="clip155">
      <path
         d="m 974,316 h 17 v 16.46094 h -17 z m 0,0"
         id="path7255" />
    </clipPath>
    <clipPath
       id="clip156">
      <path
         d="M 972.05859,309 H 990 v 23 h -17.94141 z m 0,0"
         id="path7258" />
    </clipPath>
    <clipPath
       id="clip157">
      <path
         d="m 995,309 h 19 v 23.46094 h -19 z m 0,0"
         id="path7261" />
    </clipPath>
    <clipPath
       id="clip158">
      <path
         d="m 1034,307.42187 h 16.7109 v 25.03907 H 1034 Z m 0,0"
         id="path7264" />
    </clipPath>
    <clipPath
       id="clip159">
      <path
         d="m 989,307.42187 h 13 V 317 h -13 z m 0,0"
         id="path7267" />
    </clipPath>
    <clipPath
       id="clip160">
      <path
         d="m 1003,307.42187 h 10 V 318 h -10 z m 0,0"
         id="path7270" />
    </clipPath>
    <clipPath
       id="clip161">
      <path
         d="m 1041,307.42187 h 9.7109 V 316 H 1041 Z m 0,0"
         id="path7273" />
    </clipPath>
    <clipPath
       id="clip162">
      <path
         d="m 1024,317 h 15 v 15.46094 h -15 z m 0,0"
         id="path7276" />
    </clipPath>
    <clipPath
       id="clip165">
      <path
         d="m 768,637 h 85.89844 v 23 H 768 Z m 0,0"
         id="path7285" />
    </clipPath>
    <clipPath
       id="clip166">
      <path
         d="m 767.14062,636 h 86.75782 v 24.5 h -86.75782 z m 0,0"
         id="path7288" />
    </clipPath>
    <clipPath
       id="clip163">
      <path
         d="m 872.55859,623.26953 h 77.11328 V 663 h -77.11328 z m 0,0"
         id="path7279" />
    </clipPath>
    <clipPath
       id="clip164">
      <path
         d="m 913,623.26953 h 20 V 642 h -20 z m 0,0"
         id="path7282" />
    </clipPath>
  </defs>
  <sodipodi:namedview
     id="base"
     pagecolor="#ffffff"
     bordercolor="#666666"
     borderopacity="1.0"
     inkscape:pageopacity="0.0"
     inkscape:pageshadow="2"
     inkscape:zoom="1"
     inkscape:cx="158.18417"
     inkscape:cy="97.78156"
     inkscape:document-units="px"
     inkscape:current-layer="layer1"
     inkscape:document-rotation="0"
     showgrid="false"
     units="px"
     fit-margin-top="0"
     fit-margin-left="0"
     fit-margin-right="0"
     fit-margin-bottom="0"
     inkscape:window-width="1366"
     inkscape:window-height="714"
     inkscape:window-x="0"
     inkscape:window-y="0"
     inkscape:window-maximized="1" />
  <metadata
     id="metadata3163">
    <rdf:RDF>
      <cc:Work
         rdf:about="">
        <dc:format>image/svg+xml</dc:format>
        <dc:type
           rdf:resource="http://purl.org/dc/dcmitype/StillImage" />
        <dc:title></dc:title>
      </cc:Work>
    </rdf:RDF>
  </metadata>
  <g
     inkscape:label="レイヤー 1"
     inkscape:groupmode="layer"
     id="layer1"
     transform="translate(1.4425126e-5)">
    <path
       style="fill:#9ccfa8;fill-opacity:1;fill-rule:nonzero;stroke:none;stroke-width:1.41111"
       d="m 41.222576,30.805518 c 0,0 -0.876441,0.25908 -0.832345,-0.926046 -0.04952,1.196146 0.832345,0.937078 0.832345,0.937078 l 2.386763,-0.622877 c 0,-0.0056 0.006,-0.0112 0.006,-0.0112 l -2.392235,0.622777"
       id="path11234" />
    <path
       style="fill:#9ccfa8;fill-opacity:1;fill-rule:nonzero;stroke:none;stroke-width:1.41111"
       d="m 49.612089,33.385214 c 0.77721,-0.892965 0.71657,-2.144227 0.71105,-2.21038 0,0 0,0.0056 0,0.0056 0,0 0.0607,1.284339 -0.71105,2.204864"
       id="path11236" />
    <path
       style="fill:#9ccfa8;fill-opacity:1;fill-rule:nonzero;stroke:none;stroke-width:1.41111"
       d="m 60.934069,29.063679 c 0,0 0,0.672481 -0.78273,1.102434 -0.56224,0.30868 -1.28434,0.573265 -1.75287,0.727597 -0.4024,0.12672 -0.73863,-0.12672 -0.75517,-0.540189 0.0112,0.418933 0.34728,0.677997 0.75517,0.545709 0.46853,-0.14884 1.19063,-0.413417 1.75287,-0.722097 0.78273,-0.429953 0.78273,-1.102434 0.78273,-1.102434 0,0 0.0937,-0.892966 0.16536,-1.730815 0.006,-0.05516 0.0112,-0.1102 0.0112,-0.16536 0,0.05516 -0.006,0.10472 -0.0112,0.15436 -0.0717,0.837849 -0.16536,1.730815 -0.16536,1.730815"
       id="path11238" />
    <path
       style="fill:#9ccfa8;fill-opacity:1;fill-rule:nonzero;stroke:none;stroke-width:1.41111"
       d="m 65.619409,30.948842 c 0,0 -0.87093,0.09372 -0.82132,-1.09141 -0.0552,1.201646 0.82132,1.10243 0.82132,1.10243 l 2.87182,-1.052818 c 0,0 0.006,-0.0056 0.006,-0.0112 l -2.87734,1.052834"
       id="path11240" />
    <path
       style="fill:#9ccfa8;fill-opacity:1;fill-rule:nonzero;stroke:none;stroke-width:1.41111"
       d="m 96.134739,30.099961 c -0.60635,0.3252 -1.46623,0.749653 -2.11117,1.036293 -0.55673,0.253561 -0.82131,-0.0992 -0.81028,-0.567749 -0.0164,0.474037 0.24805,0.83233 0.81028,0.578769 0.64494,-0.28664 1.50482,-0.716577 2.11117,-1.036281 0.56224,-0.297641 0.57876,-0.826826 0.57876,-0.915022 -0.006,0.12672 -0.044,0.622881 -0.57876,0.90399"
       id="path11242" />
    <path
       style="fill:#9ccfa8;fill-opacity:1;fill-rule:nonzero;stroke:none;stroke-width:1.41111"
       d="m 101.38781,30.959862 c 0.84888,-0.30316 2.49702,-0.948098 2.67341,-1.014238 0.0112,-0.0112 0.0164,-0.022 0.0164,-0.022 0,0 -1.79145,0.705557 -2.68993,1.025274 -0.67248,0.24252 -0.80478,-0.12684 -0.80478,-0.595321 0,0.474049 0.12684,0.848869 0.80478,0.606341"
       id="path11244" />
    <path
       style="fill:#9ccfa8;fill-opacity:1;fill-rule:nonzero;stroke:none;stroke-width:1.41111"
       d="m 74.945979,43.251987 c 3.81992,-1.581999 6.66972,-4.47588 6.66972,-4.47588 0,0 0.16536,-0.0384 0.1488,-0.424436 0.0112,0.37484 -0.1488,0.413412 -0.1488,0.413412 0,0 -2.8498,2.893885 -6.66972,4.475872 -0.70004,0.292161 -0.94259,0.209481 -0.97014,0 0.022,0.220481 0.25908,0.308681 0.97014,0.0112"
       id="path11246" />
    <path
       style="fill:#9ccfa8;fill-opacity:1;fill-rule:nonzero;stroke:none;stroke-width:1.41111"
       d="m 70.519709,48.962581 c 0.006,1.841067 -0.0552,3.285258 -0.0552,3.285258 0.006,-0.0882 0.0607,-1.499311 0.0552,-3.285258"
       id="path11248" />
    <path
       style="fill:#9ccfa8;fill-opacity:1;fill-rule:nonzero;stroke:none;stroke-width:1.41111"
       d="m 76.406709,37.850062 -6.26182,5.76021 c 0,0 0,0.0056 0,0.0056 l 6.2563,-5.754706 c 0.006,-0.0056 0.006,-0.0056 0.006,-0.0112"
       id="path11250" />
    <path
       style="fill:#9ccfa8;fill-opacity:1;fill-rule:nonzero;stroke:none;stroke-width:1.41111"
       d="m 87.193999,36.477544 c -0.226,-2.331652 -3.38447,-3.42857 -4.84518,-3.610475 -1.46073,-0.18188 -4.75149,0.226001 -4.75149,0.226001 0,0 -1.2237,0.28112 -1.28984,-0.474053 0.0552,0.766193 1.28984,0.485073 1.28984,0.485073 0,0 3.29076,-0.407897 4.75149,-0.226001 1.46071,0.181921 4.61918,1.278823 4.84518,3.610475 0.0384,0.35828 0.0607,0.700041 0.0552,1.036281 0.006,-0.34176 -0.0164,-0.683501 -0.0552,-1.047301"
       id="path11252" />
    <path
       style="fill:#9ccfa8;fill-opacity:1;fill-rule:nonzero;stroke:none;stroke-width:1.41111"
       d="m 75.475139,30.81655 c 0.006,0.11572 -0.044,0.29764 -0.20944,0.589805 -0.55122,0.959105 -1.96785,3.197045 -1.96785,3.197045 0,0 0.006,0 0.0112,-0.0056 0.0937,-0.1488 1.42765,-2.259984 1.95682,-3.186025 0.17088,-0.297641 0.22048,-0.485069 0.20944,-0.595305"
       id="path11254" />
    <path
       style="fill:#008285;fill-opacity:1;fill-rule:nonzero;stroke:none;stroke-width:1.41111"
       d="m 50.323139,31.174834 c 0.0276,-0.15432 0.0827,-2.524568 0.13789,-4.982996 -0.0552,2.463944 -0.11021,4.83968 -0.13789,4.977492 0,0 0,0.0056 0,0.0056"
       id="path11256" />
    <path
       style="fill:#008285;fill-opacity:1;fill-rule:nonzero;stroke:none;stroke-width:1.41111"
       d="m 49.336479,33.666339 c -1.3064,1.080374 -2.86082,1.923739 -2.86082,1.923739 0,0 -1.19063,0.826829 -1.14101,-1.659159 0,0 0,0.0056 0,0.0056 -0.0552,2.49702 1.14101,1.664675 1.14101,1.664675 0,0 1.57096,-0.821309 2.86082,-1.929259 0.10472,-0.0882 0.19292,-0.181881 0.2756,-0.286641 -0.0827,0.0992 -0.17088,0.192921 -0.2756,0.281121"
       id="path11258" />
    <path
       style="fill:#008285;fill-opacity:1;fill-rule:nonzero;stroke:none;stroke-width:1.41111"
       d="m 34.211108,26.781643 c 0.25356,-0.14884 0.694521,-0.374801 1.124474,-0.589805 h -0.0164 c -0.429953,0.215 -0.854386,0.435469 -1.107934,0.578781 -0.650441,0.3748 -0.738633,1.025262 -0.738633,1.025262 0,0 -0.220481,2.067067 -0.253561,2.5852 0,0 0,0 0,0.0056 0.0384,-0.534685 0.253561,-2.579696 0.253561,-2.579696 0,0 0.0882,-0.650426 0.738633,-1.025262"
       id="path11260" />
    <path
       style="fill:#008285;fill-opacity:1;fill-rule:nonzero;stroke:none;stroke-width:1.41111"
       d="m 40.390231,29.879472 c 0.0276,-0.584285 0.10472,-2.188328 0.17088,-3.687634 -0.07168,1.493806 -0.14332,3.097845 -0.17088,3.676614 0,0.0056 0.0056,0.0056 0,0.0112"
       id="path11262" />
    <path
       style="fill:#008285;fill-opacity:1;fill-rule:nonzero;stroke:none;stroke-width:1.41111"
       d="m 62.648349,35.149105 c -0.84887,0.380361 -0.90401,-0.11572 -1.00872,-0.639417 -0.0992,-0.518133 -0.18192,-1.598523 -0.18192,-1.598523 0,0 -1.2733,0.870926 -2.05604,1.234727 -0.77721,0.3638 -2.91593,1.38907 -4.79558,1.234722 -0.92604,-0.0772 -1.12999,-0.815794 -1.12999,-1.449695 0,0.633901 0.19844,1.383555 1.12999,1.460715 1.87965,0.15988 4.01837,-0.87091 4.79558,-1.234722 0.78274,-0.363801 2.05604,-1.234727 2.05604,-1.234727 0,0 0.0827,1.08039 0.18192,1.598539 0.10472,0.523649 0.15984,1.019742 1.00872,0.639405 0.93706,-0.413416 5.07119,-3.957739 5.8484,-5.253085 h -0.006 c -0.80477,1.311886 -4.91132,4.828649 -5.84288,5.242061"
       id="path11264" />
    <path
       style="fill:#008285;fill-opacity:1;fill-rule:nonzero;stroke:none;stroke-width:1.41111"
       d="m 57.974029,27.586412 c 0.0717,-0.407896 0.25908,-0.711057 0.59531,-0.931545 0.1102,-0.0772 0.45751,-0.259081 0.86542,-0.463029 h -0.022 c -0.39688,0.19844 -0.73311,0.37484 -0.84336,0.452009 -0.33624,0.22048 -0.52365,0.523648 -0.59531,0.931545 -0.0772,0.407897 -0.226,2.067072 -0.31972,2.590721 -0.0112,0.0662 -0.0164,0.12672 -0.0112,0.1874 0,-0.05516 0,-0.11572 0.0112,-0.1764 0.0937,-0.523649 0.24252,-2.182808 0.31972,-2.590721"
       id="path11266" />
    <path
       style="fill:#008285;fill-opacity:1;fill-rule:nonzero;stroke:none;stroke-width:1.41111"
       d="m 64.798089,29.857432 c 0.022,-0.578785 0.1874,-2.177308 0.35276,-3.665594 -0.16536,1.488286 -0.33072,3.081309 -0.35276,3.660074 0,0 0,0.0056 0,0.0056"
       id="path11268" />
    <path
       style="fill:#008285;fill-opacity:1;fill-rule:nonzero;stroke:none;stroke-width:1.41111"
       d="m 70.508689,47.634159 c -0.044,-2.353692 -0.34728,-3.924659 -0.3638,-4.018371 v 0.0056 c 0,0 0.31972,1.598523 0.3638,4.018359 0.0112,0.451993 0.0112,0.898485 0.0112,1.322918 0,-0.424433 0,-0.876429 -0.0112,-1.328422"
       id="path11270" />
    <path
       style="fill:#008285;fill-opacity:1;fill-rule:nonzero;stroke:none;stroke-width:1.41111"
       d="m 73.975839,43.240955 c -0.0332,-0.3638 0.51263,-1.085894 0.51263,-1.085894 0,0 1.78043,-3.015157 1.91824,-4.293979 h -0.006 c -0.14332,1.284342 -1.91273,4.282955 -1.91273,4.282955 0,0 -0.55672,0.733118 -0.51263,1.096918"
       id="path11272" />
    <path
       style="fill:#008285;fill-opacity:1;fill-rule:nonzero;stroke:none;stroke-width:1.41111"
       d="m 80.292779,28.159677 c 0,0 -2.19384,0.915022 -2.60725,1.278822 -0.4079,0.363801 -0.95912,1.554439 -1.32292,2.789165 -0.044,0.15432 -0.0607,0.281121 -0.0552,0.391361 -0.006,-0.10472 0.0112,-0.231521 0.0552,-0.380321 0.3638,-1.234722 0.91502,-2.425352 1.32292,-2.789149 0.41341,-0.36932 2.60725,-1.278822 2.60725,-1.278822 0,0 0.95911,-0.09372 1.55443,-1.692235 0.0332,-0.0992 0.0717,-0.19844 0.10472,-0.28664 h -0.006 c -0.0332,0.0882 -0.0607,0.1764 -0.0992,0.2756 -0.59532,1.598523 -1.55443,1.692219 -1.55443,1.692219"
       id="path11274" />
    <path
       style="fill:#008285;fill-opacity:1;fill-rule:nonzero;stroke:none;stroke-width:1.41111"
       d="m 82.029099,44.61349 c -5.11528,4.338071 -11.55349,7.628829 -11.56451,7.634349 0,0.0056 0,0.0112 0,0.0112 0,0 6.44372,-3.290758 11.56451,-7.634349 4.32705,-3.671099 5.19246,-5.280642 5.22002,-7.099665 -0.0332,1.813503 -0.89848,3.428566 -5.22002,7.088645"
       id="path11276" />
    <path
       style="fill:#008285;fill-opacity:1;fill-rule:nonzero;stroke:none;stroke-width:1.41111"
       d="m 73.375009,26.35169 c 0,0 0.0112,-0.06068 0.044,-0.15984 h -0.006 c -0.0332,0.0882 -0.0388,0.14884 -0.0388,0.14884 0,0 -0.0384,0.501609 -0.1102,1.433171 0,0.022 0,0.04404 0,0.0662 0,-0.022 0,-0.0384 0,-0.05516 0.0717,-0.931562 0.1102,-1.433171 0.1102,-1.433171"
       id="path11278" />
    <path
       style="fill:#008285;fill-opacity:1;fill-rule:nonzero;stroke:none;stroke-width:1.41111"
       d="m 81.483409,37.210661 c -0.55122,-1.466247 -1.41663,-2.607261 -3.70417,-3.10887 -2.23244,-0.490572 -4.37667,0.451997 -4.47037,0.496093 -0.006,0.0056 -0.0112,0.0164 -0.0112,0.0164 0,0 2.19385,-1.008717 4.4814,-0.501609 2.28755,0.501609 3.15295,1.642635 3.70418,3.10335 0.20396,0.551225 0.2756,0.904001 0.28112,1.13551 -0.006,-0.226001 -0.0772,-0.584285 -0.28112,-1.14101"
       id="path11280" />
    <path
       style="fill:#008285;fill-opacity:1;fill-rule:nonzero;stroke:none;stroke-width:1.41111"
       d="m 75.127879,30.673226 c 0,0 -2.60725,0.777225 -4.5751,1.185122 -1.10243,0.23152 -1.35599,-0.181921 -1.35599,-0.661462 0,0.479553 0.24808,0.90399 1.35599,0.678002 1.96785,-0.413417 4.5751,-1.19063 4.5751,-1.19063 0,0 0.31972,-0.110201 0.34728,0.13224 -0.0164,-0.253561 -0.34728,-0.14332 -0.34728,-0.14332"
       id="path11282" />
    <path
       style="fill:#008285;fill-opacity:1;fill-rule:nonzero;stroke:none;stroke-width:1.41111"
       d="m 100.58304,30.353521 c 0.006,-0.15432 0.0164,-0.325201 0.0332,-0.479553 0,0 0.0882,-1.681215 0.14884,-3.68213 -0.0607,1.995411 -0.14884,3.67111 -0.14884,3.67111 -0.0164,0.15984 -0.0276,0.330721 -0.0332,0.490573"
       id="path11284" />
    <path
       style="fill:#008285;fill-opacity:1;fill-rule:nonzero;stroke:none;stroke-width:1.41111"
       d="m 99.205009,34.862469 c -0.83233,0.766189 -1.4056,0.573265 -1.47175,-0.13224 -0.0607,-0.700038 -0.0607,-1.923744 -0.0607,-1.923744 0,0 -3.26871,2.116672 -5.45153,2.568681 -2.0395,0.418916 -2.84427,-0.115721 -2.83325,-1.234726 -0.0164,1.124473 0.78824,1.664662 2.83325,1.245746 2.18282,-0.451993 5.45153,-2.563161 5.45153,-2.563161 0,0 0,1.212682 0.0607,1.91824 0.0662,0.705557 0.63942,0.898485 1.47175,0.13224 0.832321,-0.77171 4.872731,-4.938897 4.872731,-4.938897 0,0 -0.006,0.0056 -0.0164,0.0112 -0.2756,0.281121 -4.05144,4.172707 -4.856211,4.916845"
       id="path11286" />
    <path
       style="fill:#008285;fill-opacity:1;fill-rule:nonzero;stroke:none;stroke-width:1.41111"
       d="m 93.632209,27.999829 c 0,0 0,-0.0056 0,-0.0112 0,0.0112 -0.28664,1.791451 -0.39136,2.364716 -0.0164,0.07168 -0.022,0.14332 -0.0276,0.215 0.006,-0.0662 0.0112,-0.13788 0.0276,-0.20948 0.10472,-0.573265 0.39136,-2.359212 0.39136,-2.359212"
       id="path11288" />
    <path
       style="fill:#008285;fill-opacity:1;fill-rule:nonzero;stroke:none;stroke-width:1.41111"
       d="m 93.632209,27.983289 c 0,-0.08268 0.0384,-0.672481 1.00322,-1.240226 0.31972,-0.187401 0.66696,-0.380321 0.9977,-0.551225 h -0.0164 c -0.32524,0.17088 -0.66698,0.35828 -0.98116,0.540201 -1.01976,0.600825 -1.00322,1.234726 -1.00322,1.25125"
       id="path11290" />
    <path
       style="fill:#de001e;fill-opacity:1;fill-rule:nonzero;stroke:none;stroke-width:1.41111"
       d="m 90.749349,25.502821 c 0,0 0.61186,-0.402381 1.08039,-0.694538 0.49057,-0.30316 0.51813,-0.733117 -0.215,-0.865409 -0.73862,-0.12672 -4.75699,-0.733113 -4.75699,-0.733113 l 8.60449,-3.070274 2.41983,-3.241145 c -1.16858,-0.909518 -4.28295,-2.982093 -4.28295,-2.982093 -5.35782,-3.632503 -11.53696,-5.6168777 -18.23974,-7.5681967 -6.69728,-1.94028 -14.52455,-2.028476 -20.22964,-1.637103 -5.70508,0.38584 -12.10471,2.028475 -19.623301,4.92236 -7.524101,2.8994007 -15.26317,9.7289647 -15.26317,9.7289647 l 1.819011,-6.741368 c -7.220936,0.600821 -10.417986,7.000432 -10.417986,7.000432 -3.4616421,5.793286 -1.9457951,8.775364 -1.9457951,8.775364 1.5103261,2.381256 5.4901171,1.168586 5.4901171,1.168586 5.44601,-1.9458 6.096451,-4.106567 6.223223,-5.40743 0.12688,-1.295358 -1.515847,-2.54662 -1.515847,-2.54662 l 9.640785,-4.277439 -3.197062,5.357813 10.853455,-3.241142 c 4.365632,-0.474053 4.40421,3.373434 4.40421,3.373434 l -0.341759,7.044548 3.847499,-1.559943 c 0,0 0.99218,-13.962308 0.99218,-15.21357 0,-1.251262 -0.69453,-1.080374 -0.69453,-1.080374 0,0 -1.98438,-0.04404 -2.41984,-0.04404 -0.42995,0 -0.99219,-0.17088 -0.30316,-0.562245 0.69453,-0.38584 5.53421,-2.7671077 7.39731,-3.5443217 1.85761,-0.777213 1.59854,1.256782 1.59854,1.256782 0,0 -0.43547,11.6692437 -0.43547,12.5732297 0,0.909506 0.77721,0.650441 0.77721,0.650441 0,0 6.78549,-2.33164 10.76526,-2.982077 3.97428,-0.644921 3.41754,2.640321 3.41754,2.640321 0,0 -0.52365,6.653187 -0.56223,7.518593 -0.044,0.865409 0.68901,0.429952 0.68901,0.429952 l 2.76711,-1.11897 c 0,0 0.94809,-4.365631 1.38355,-5.622413 0.42995,-1.251262 1.42765,-1.383555 1.42765,-1.383555 l 11.80154,-3.500222 -1.90721,2.463944 c 0,0 0.13224,0 0.78273,-0.04404 0.65044,-0.04404 0.82131,0.0882 0.94808,1.080378 0.13224,0.997702 -0.51813,3.704175 -0.94808,5.231041 -0.34728,1.212682 -1.55442,1.642635 -1.55442,1.642635 l -2.89941,1.598523 -1.12449,2.248964 c 0,0 0.42996,-0.303161 1.47176,-0.429953 1.03629,-0.1322 3.67111,-0.303161 5.40192,0.17088 1.73082,0.474037 3.07027,1.901688 3.58842,2.29306 0.51813,0.385841 0.99218,0.297641 1.12447,-0.435468 0.12688,-0.733118 0.92605,-5.41845 1.29537,-7.000453 0.3142,-1.367014 0.8654,-1.642618 0.8654,-1.642618 z M 20.00626,23.088488 c 0.777213,1.003218 0.711073,2.133208 -0.126721,2.904917 -0.837845,0.771698 -3.290769,2.772613 -5.837378,3.064758 -1.681215,0.19292 -3.74277,-0.192921 -3.908122,-1.741835 -0.1598811,-1.548923 0.777213,-4.740468 1.774911,-6.54846 1.003217,-1.807987 3.125393,-4.453823 5.032596,-5.611377 2.386772,-1.455211 4.161683,-1.262282 4.161683,-1.262282 l -2.160767,7.292592 -1.648139,0.644921 c 0,0 1.940283,0.259081 2.711993,1.256766 z m 69.094949,3.593939 c -0.3748,1.570962 -1.4056,6.989412 -1.4056,6.989412 0,0 -1.08589,-1.570963 -3.84748,-2.166268 -2.76159,-0.600825 -5.30822,-0.05516 -5.30822,-0.05516 0,0 0.1102,-0.490589 0.81029,-0.760689 l 2.33164,-1.300863 c 0,0 1.03078,-0.37484 1.51585,-1.785947 0.49059,-1.411114 1.30086,-4.657776 1.08038,-6.283859 -0.21496,-1.626098 -0.8599,-1.030777 -0.8599,-1.030777 0,0 1.4056,-1.841064 2.00092,-2.706473 0.59531,-0.865406 0.15984,-1.085894 -0.92054,-0.595305 -1.08038,0.485069 -6.49883,2.491488 -8.94071,3.141929 -2.43639,0.650437 -4.17271,1.190626 -4.43729,1.300863 -0.27564,0.10472 -0.92605,0.31972 -1.3064,1.515846 -0.3748,1.190626 -1.19063,4.062467 -1.19063,4.062467 l -0.21496,1.080378 -2.06155,0.870926 0.43547,-6.884696 c 0,0 0.43546,-4.602644 -4.11759,-3.46715 -4.55304,1.141026 -8.29029,2.386772 -8.94073,2.546624 -0.65043,0.16536 -1.57096,0.380321 -1.57096,0.380321 l 0.33072,-11.377104 c 0,0 0.31972,-2.4914877 -0.92604,-3.0316927 -1.24575,-0.545689 -3.19705,0.650441 -4.33256,1.19063 -1.13551,0.540201 -4.55304,2.3316517 -6.124003,3.2521777 -1.570967,0.920541 -0.485073,1.300878 0.22048,1.300878 0.700043,0 2.761593,0.04952 3.252183,0.04952 0.48507,0 0.64492,0.2756 0.64492,0.650441 0,0.380321 -0.81029,14.248945 -0.81029,14.248945 l -2.33166,0.865405 c 0,0 0.215,-4.54754 0.215,-6.333471 0,-1.791451 -2.651352,-4.282955 -4.707387,-3.742766 -2.061552,0.545705 -9.547057,2.871841 -9.547057,2.871841 l 3.527782,-5.881478 -10.329801,4.591635 c 0,0 4.189243,-4.442807 9.574632,-7.1603 4.867241,-2.458428 9.1557,-4.4924237 15.819911,-5.9586537 6.66419,-1.460715 12.70002,-2.596221 24.27005,-0.760673 9.01237,1.433154 16.09,4.9885117 19.55715,6.6642067 3.46714,1.681203 6.49884,4.282943 6.49884,4.282943 l -1.73082,2.381253 c 0,0 -8.72024,2.816724 -9.86126,3.307297 -1.14102,0.485073 -0.21496,0.975658 0.0552,1.025258 0.27008,0.05516 4.983,0.975662 4.983,0.975662 0,0 -0.92054,0.16536 -1.30088,1.736331"
       id="path11292" />
    <path
       style="fill:#de001e;fill-opacity:1;fill-rule:nonzero;stroke:none;stroke-width:1.41111"
       d="m 80.562869,39.007612 c 0.43547,-0.363801 0.72762,-1.339442 -0.0717,-2.574165 0,0 -0.44649,-0.666977 -0.94258,-1.014237 -0.3638,-0.259081 -0.65594,0.35828 -0.65594,0.35828 l -3.29628,6.388603 c 0,0 4.531,-2.794664 4.96646,-3.158481 z m -1.2292,-2.24896 0.5016,0.992194 c 0,0 0.23152,0.39136 -0.0552,0.678001 -0.28664,0.29212 -2.01194,1.543403 -2.01194,1.543403 l 1.56546,-3.213598"
       id="path11294" />
    <path
       style="fill:#de001e;fill-opacity:1;fill-rule:nonzero;stroke:none;stroke-width:1.41111"
       d="m 31.526675,24.290151 c 1.08039,-0.474049 0.562245,-0.82131 -0.04404,-0.82131 -0.606341,0 -5.660989,-0.04404 -5.660989,-0.04404 l 2.811204,6.746888 0.948098,-4.971973 c 0,0 0.86541,-0.429953 1.945787,-0.909505 z m -3.103349,3.445093 -1.48277,-3.549826 3.290757,0.0662 -1.350474,0.744154 -0.457513,2.739532"
       id="path11296" />
    <path
       style="fill:#de001e;fill-opacity:1;fill-rule:nonzero;stroke:none;stroke-width:1.41111"
       d="m 74.471939,27.509252 c 0,0 0.90399,-0.18192 1.81349,-0.545705 0.90401,-0.3638 0.90401,-0.904001 0.90401,-0.904001 l 0.29216,-1.455211 -3.08682,1.344974 c 0,0 -0.14332,0.689018 -0.215,1.124474 -0.0717,0.435469 0.29216,0.435469 0.29216,0.435469 z m 0.25908,-1.047314 c 0,0 -0.006,-0.15984 0.24804,-0.27008 0.24804,-0.11572 1.84657,-0.733117 1.84657,-0.733117 l -0.226,0.661461 c 0,0 -0.0662,0.20948 -0.33072,0.3142 -0.25908,0.10472 -1.16307,0.374801 -1.24023,0.396881 -0.18744,0.04404 -0.24804,-0.04968 -0.28112,-0.10472 -0.022,-0.05516 -0.0164,-0.264601 -0.0164,-0.264601"
       id="path11298" />
    <path
       style="fill:#de001e;fill-opacity:1;fill-rule:nonzero;stroke:none;stroke-width:1.41111"
       d="m 34.3434,29.951144 c 0,0 0.760674,-0.23704 1.124474,-0.407912 0.363801,-0.170881 0.363801,-0.666962 0.363801,-0.666962 l 0.22048,-2.3096 c 0,0 -0.981161,0.407897 -1.416618,0.639406 -0.545705,0.29216 -0.578781,0.837849 -0.578781,0.837849 0,0 -0.11572,1.190626 -0.15432,1.559943 -0.0388,0.451992 0.440972,0.34728 0.440972,0.34728 z m 0.303161,-2.061551 0.711077,-0.418933 c 0,0 -0.09372,1.455211 -0.1212,1.565459 0,0 -0.479565,0.1874 -0.540189,0.22048 -0.0662,0.0276 -0.1764,-0.0164 -0.15988,-0.12672 0.0164,-0.1102 0.1102,-1.24023 0.1102,-1.24023"
       id="path11300" />
    <path
       style="fill:#de001e;fill-opacity:1;fill-rule:nonzero;stroke:none;stroke-width:1.41111"
       d="m 58.652029,28.490414 c -0.14332,0.903989 -0.14332,1.48277 -0.14332,1.48277 0,0 1.19613,-0.39688 1.55993,-0.578781 0.3638,-0.18188 0.46855,-0.942569 0.46855,-0.942569 l 0.0384,-2.028476 c 0,0 -0.72762,0.358281 -1.16307,0.578769 -0.43546,0.215001 -0.61736,0.578781 -0.76068,1.488287 z m 1.13,0.3638 c -0.30317,0.192921 -0.4465,0.264601 -0.52366,0.292161 -0.0772,0.0332 -0.17088,-0.04404 -0.15436,-0.13772 0.0112,-0.09368 0.1212,-1.085894 0.23152,-1.223702 0.1102,-0.137881 0.678,-0.418933 0.678,-0.418933 v 1.102434 c 0,0 0.0164,0.23152 -0.23152,0.38584"
       id="path11302" />
    <path
       style="fill:#de001e;fill-opacity:1;fill-rule:nonzero;stroke:none;stroke-width:1.41111"
       d="m 99.910569,9.6167693 c -2.61828,1.1575537 -4.11207,3.0482327 -4.11207,3.0482327 l 1.49379,1.096914 c 0.88746,0.700042 1.80247,1.400095 1.80247,1.400095 0,0 2.144231,-2.612777 2.954511,-4.145147 0.82132,-1.5544387 1.55994,-3.0316937 -2.138701,-1.4000947 z m 0.628371,2.8663247 c -0.578761,0.937066 -1.163061,1.648139 -1.515841,2.028476 l -2.34818,-1.675695 c 0,0 1.16307,-1.13551 2.34818,-1.824527 1.179601,-0.694538 2.585201,-1.2733067 2.767101,-1.0969177 0.24256,0.2480397 -0.6835,1.6426227 -1.25126,2.5686637"
       id="path11304" />
    <g
       clip-path="url(#clip163)"
       clip-rule="nonzero"
       id="g11308"
       transform="matrix(1.4111136,0,0,1.4111136,-1231.5192,-879.82574)">
      <path
         style="fill:#de001e;fill-opacity:1;fill-rule:nonzero;stroke:none"
         d="m 947.40625,643.32422 c -0.64844,0.20703 -1.98828,0.65234 -1.98828,0.65234 0,0 0,-1.57812 0,-2.98437 0,-1.40625 -0.13672,-1.92188 -0.13672,-1.92188 -0.44531,-1.23437 -1.50781,-1.85156 -1.50781,-1.85156 0,0 1.95312,-2.16016 3.80468,-4.49219 1.85157,-2.32812 2.16016,-3.53125 1.54297,-4.59375 -0.61718,-1.0625 -2.57031,-1.09765 -4.97265,-0.41015 -2.39844,0.68359 -6.24219,2.84375 -6.24219,2.84375 0,0 -2.34375,-1.60547 -5.96484,-3.05079 -5.45313,-2.17187 -13.91797,-4.60937 -24.17579,-3.05078 -9.80078,1.48828 -16.32031,5.72657 -16.32031,5.72657 0,0 -1.03125,-0.82813 -3.80469,-0.61719 -3.66796,0.27344 -7.13281,2.91406 -9.15625,5.38281 -2.02343,2.46875 -4.87109,6.34375 -5.625,10.25391 -0.7539,3.90625 1.88672,5.72656 4.45704,5.92968 2.57421,0.20704 5.24609,-1.57421 5.24609,-1.57421 l -0.89063,2.80859 10.59766,-5.07422 c 0,0 -0.0508,0.55078 -0.082,0.75 -0.0742,0.52344 0,0.97656 0.78906,1.46484 1.60156,0.99219 5.25391,-0.90234 5.25391,-0.90234 0,0 -0.11328,0.15234 0.0781,0.64063 0.1875,0.48437 0.67188,0.75 1.80078,0.22265 1.125,-0.52344 3.86719,-3.26562 3.86719,-3.26562 0,0 -0.15234,1.95312 -0.11328,2.6289 0.0352,0.67578 0.5625,1.35157 1.42578,1.42578 0.86328,0.0742 4.01563,-1.8789 4.12891,-3.26562 0.11328,-1.39063 0.1875,-6.23047 0.1875,-6.23047 l 1.83984,0.1875 c 0,0 -0.45312,0.26172 -0.64062,0.52344 -0.1875,0.26562 -1.16016,5.33203 -1.19922,5.78125 -0.0391,0.45312 -0.20313,2.33984 1.38672,2.58984 1.28515,0.20313 4.52343,-1.21094 4.52343,-1.21094 0,0 -0.0234,0.35157 0.24219,0.82032 0.65625,1.16406 1.71485,0.24218 1.71485,0.24218 l 3.25781,-2.91796 c 0,0 0.20312,0.62109 0.95703,0.72265 0.75391,0.10156 2.16406,-0.3789 2.16406,-0.3789 0,0 -1.20312,2.26562 -1.27344,2.4375 -0.0664,0.16796 0.10157,0.40625 0.33985,0.20312 0.24219,-0.20703 0.6914,-0.41016 1.71875,-0.68359 1.03125,-0.27344 1.92187,-0.27344 1.92187,-0.27344 0,0 -0.85937,1.05859 -2.125,2.29687 -1.26953,1.23438 -3.1914,2.67188 -3.1914,2.67188 0,0 0.34375,1.51172 0.34375,4.11719 0,2.60547 -0.20703,4.97265 -0.20703,4.97265 0,0 0,0 3.15625,-1.78515 3.15625,-1.78125 7.19921,-4.83203 9.42968,-6.96094 2.23047,-2.125 2.02344,-4.59375 2.02344,-4.59375 0,0 0.34375,0.41016 1.40625,0.41016 1.0625,0 3.49609,-1.26954 3.49609,-1.26954 0,0 0.27344,1.0625 1.26954,1.26954 0.99218,0.20703 1.67968,-0.78907 1.67968,-0.78907 0,0 3.35938,-3.42968 4.28907,-4.42187 0.92578,-0.9961 1.1289,-1.23438 1.02734,-1.61328 -0.10156,-0.375 -1.09766,0 -1.75,0.20703 z m 0.23437,0.97656 c -0.61328,0.69531 -4.375,4.58594 -4.375,4.58594 0,0 -1.6875,1.09375 -1.73046,-0.42578 -0.0195,-0.57813 -0.0274,-0.85157 -0.0274,-0.85157 0,0 -2.50781,1.46485 -3.86719,1.60157 -1.36328,0.13281 -1.57421,-0.34766 -1.8164,-0.80469 0,0 -0.7461,-0.10547 -0.69141,0.42969 0.0547,0.53125 0.0547,2.61328 -0.82812,3.70703 -0.87891,1.09375 -2.66797,2.8789 -5.22657,4.64062 -2.5625,1.76172 -6.16406,3.97266 -6.88281,4.21485 0,0 0.082,-1.73438 -0.0273,-3.78907 -0.10547,-2.05468 -0.15625,-3.33203 -0.23828,-3.51953 0,0 2.13672,-1.8125 3.76172,-3.49218 1.625,-1.6836 2.32031,-2.48438 2.32031,-2.48438 0,0 -0.61328,-0.21094 -1.76172,0 -1.14844,0.21484 -1.91797,0.50781 -2.18359,0.61328 -0.26954,0.10938 -0.40235,0 -0.29688,-0.23828 0.10938,-0.23828 1.33203,-2.375 1.33203,-2.375 l -2.55859,0.77344 c 0,0 -1.10938,0.27344 -1.17188,-0.58594 -0.0469,-0.58984 0.0508,-0.90625 0.0508,-0.90625 l -3.97265,3.49219 c 0,0 -1.01172,0.86328 -1.3086,-0.0742 -0.20703,-0.64453 -0.16015,-1.15234 -0.16015,-1.15234 0,0 -2.71875,1.36328 -4.21485,1.49609 -1.49218,0.13281 -1.70312,-0.90625 -1.67968,-1.76172 0.0273,-0.85156 1.0664,-5.25391 1.0664,-5.25391 0,0 0.1836,-0.71484 0.77344,-0.93359 0.87891,-0.32031 1.01563,-0.42578 1.01563,-0.42578 0,0 0.45312,-0.45313 -0.34766,-0.53516 -0.80078,-0.0781 -2.93359,-0.23828 -2.93359,-0.23828 0,0 -0.64063,-0.1875 -0.66797,0.5586 -0.0234,0.74609 -0.10547,5.92187 -0.10547,5.92187 0,0 0.0898,0.6875 -1.49219,1.97266 0,0 -1.38672,0.96093 -1.86719,1.01562 -0.48047,0.0508 -0.93359,-0.13281 -0.93359,-0.88281 0,-0.74609 0.0781,-3.67969 0.0781,-3.67969 l -4.6914,3.89453 c 0,0 -0.88281,0.66797 -1.20313,-0.34765 -0.0742,-0.23828 -0.13281,-0.80078 -0.13281,-0.80078 0,0 -1.49219,1.20312 -3.51953,1.4414 -2.02734,0.24219 -2.21484,-0.34765 -2.375,-1.03906 -0.16016,-0.69531 0.0547,-1.76172 0.0547,-1.76172 l -10.0586,4.77344 0.88282,-3.06641 c 0,0 -4,2.7461 -6.5625,2.26953 -2.5586,-0.48047 -3.62891,-1.41406 -3.54688,-4.53515 0.0781,-3.1211 3.09375,-7.73438 4.77344,-9.73438 1.67969,-2.0039 4.64062,-4.64453 6.91015,-5.30859 2.26563,-0.66797 4.39844,-1.06641 6.1875,-0.0547 0,0 5.06641,-2.55859 9.01563,-3.86719 3.94531,-1.30468 8.87891,-2.16015 11.38672,-2.24218 2.50781,-0.0781 7.12109,-0.0781 10.375,0.53515 3.25781,0.61328 6.64453,1.54688 10.9375,3.35938 4.29297,1.8164 4.80078,2.5625 4.80078,2.5625 0,0 3.83984,-2.34766 6.85547,-3.04297 3.01172,-0.69141 5.4414,-0.45313 3.27734,3.09765 -2.15625,3.54688 -4.82422,6.05469 -5.14453,6.34766 0,0 1.78516,0.66406 1.86719,2.07813 0.0781,1.41406 -0.082,4.80078 -0.082,4.80078 0,0 -0.11328,0.59375 0.42578,0.375 0.61328,-0.25 1.94922,-0.64063 2.375,-0.80078 0.42969,-0.16016 0.77344,-0.24219 0.16015,0.45312"
         id="path11306" />
    </g>
    <path
       style="fill:#de001e;fill-opacity:1;fill-rule:nonzero;stroke:none;stroke-width:1.41111"
       d="m 94.453519,27.685644 -0.45751,2.563145 c 0,0 0.9922,-0.429937 1.59854,-0.749653 0.60082,-0.314201 0.55121,-0.700042 0.55121,-0.700042 l 0.17088,-2.149743 z m 1.11897,0.948082 c 0,0 -0.38584,0.25908 -0.55121,0.336241 -0.17088,0.08268 -0.29764,0.07168 -0.27008,-0.110201 0.0164,-0.10472 0.0992,-0.512628 0.0992,-0.512628 0,0 0.0552,-0.121201 0.1764,-0.176401 0.1212,-0.06068 0.60635,-0.27008 0.60635,-0.27008 l -0.0607,0.733113"
       id="path11310" />
    <path
       style="fill:#f3b800;fill-opacity:1;fill-rule:nonzero;stroke:none;stroke-width:1.41111"
       d="m 33.748079,30.915766 c 0,-0.0056 1.025258,-0.292161 1.747351,-0.600825 0.595321,-0.259081 0.650441,-0.755169 0.650441,-0.755169 l 0.529165,-4.034895 c 0,0 -0.677997,0.3252 -1.355994,0.666961 -0.429953,0.215 -0.854386,0.435469 -1.107934,0.578781 -0.650441,0.3748 -0.738633,1.025262 -0.738633,1.025262 0,0 -0.220481,2.067067 -0.253561,2.5852 0,0 0,0 0,0.0056 -0.04968,0.733117 0.529169,0.529169 0.529169,0.529169 z m 0.308681,-2.871841 c 0,0 0.0332,-0.545705 0.578781,-0.837849 0.435457,-0.231521 1.416618,-0.639406 1.416618,-0.639406 l -0.22048,2.3096 c 0,0 0,0.496089 -0.363801,0.666962 -0.3638,0.17088 -1.124474,0.407912 -1.124474,0.407912 0,0 -0.479569,0.10472 -0.440972,-0.34728 0.0384,-0.369321 0.15432,-1.559943 0.15432,-1.559943"
       id="path11312" />
    <path
       style="fill:#f3b800;fill-opacity:1;fill-rule:nonzero;stroke:none;stroke-width:1.41111"
       d="m 102.50678,11.540513 c 0.72209,-1.5875027 2.45842,-5.2089967 -3.329331,-2.4363727 -3.68764,1.7693947 -4.71291,3.5884227 -4.71291,3.5884227 l 2.68994,1.747351 c 1.63712,1.124473 2.20486,1.686718 2.20486,1.686718 0,0 2.436381,-2.998617 3.147441,-4.586119 z m -5.214491,2.221403 -1.49379,-1.096914 c 0,0 1.49379,-1.890679 4.11207,-3.0482327 3.698641,-1.631599 2.960021,-0.15436 2.138701,1.4000947 -0.81028,1.53237 -2.954511,4.145147 -2.954511,4.145147 0,0 -0.91501,-0.700053 -1.80247,-1.400095"
       id="path11314" />
    <path
       style="fill:#f3b800;fill-opacity:1;fill-rule:nonzero;stroke:none;stroke-width:1.41111"
       d="m 96.994629,25.480777 c 0,0 -0.63941,0.3142 -1.37804,0.711061 -0.32524,0.17088 -0.66698,0.35828 -0.98116,0.540201 -1.01976,0.600825 -1.00322,1.234726 -1.00322,1.25125 0,0.0056 0,0.0056 0,0.0056 0,0.0112 -0.28664,1.791451 -0.39136,2.364716 -0.0164,0.07168 -0.022,0.14332 -0.0276,0.215 -0.0164,0.474033 0.24804,0.83233 0.81028,0.578769 0.64493,-0.28664 1.50482,-0.716581 2.11117,-1.036281 0.56224,-0.297681 0.57876,-0.826826 0.57876,-0.915022 0,-0.0112 0,-0.0112 0,-0.0164 0,0 0,-0.0112 0,-0.0112 z m -1.40008,4.018359 c -0.60634,0.31972 -1.59854,0.749653 -1.59854,0.749653 l 0.45751,-2.563145 1.86311,-1.036293 -0.17088,2.149743 c 0,0 0.0497,0.385841 -0.55121,0.700042"
       id="path11316" />
    <path
       style="fill:#f3b800;fill-opacity:1;fill-rule:nonzero;stroke:none;stroke-width:1.41111"
       d="m 74.124669,28.308509 c 0,0 2.00643,-0.573265 2.75608,-0.859893 0.74966,-0.286641 0.89297,-1.10795 0.89297,-1.10795 l 0.71658,-2.756073 c 0,0 -2.8994,1.003202 -3.93568,1.433155 -0.77721,0.31972 -1.05282,0.898485 -1.14102,1.17409 -0.0332,0.0882 -0.0388,0.14884 -0.0388,0.14884 0,0 -0.0384,0.501609 -0.1102,1.433171 0,0.022 0,0.04404 0,0.0662 -0.022,0.837849 0.8599,0.468532 0.8599,0.468532 z m 0.0552,-1.234726 c 0.0717,-0.435456 0.21496,-1.124474 0.21496,-1.124474 l 3.08681,-1.344974 -0.29216,1.455211 c 0,0 0,0.540201 -0.904,0.904001 -0.90951,0.363801 -1.81349,0.545705 -1.81349,0.545705 0,0 -0.3638,0 -0.29216,-0.435469"
       id="path11318" />
    <path
       style="fill:#f3b800;fill-opacity:1;fill-rule:nonzero;stroke:none;stroke-width:1.41111"
       d="m 59.412709,26.191838 c -0.39688,0.19844 -0.73312,0.37484 -0.84337,0.452009 -0.33624,0.22048 -0.52365,0.523648 -0.59531,0.931545 -0.0772,0.407897 -0.226,2.067072 -0.31972,2.590721 -0.0112,0.0662 -0.0164,0.12672 -0.0112,0.1874 0.0112,0.418933 0.34728,0.677997 0.75517,0.545709 0.46854,-0.14884 1.19063,-0.413417 1.75287,-0.722097 0.78273,-0.429953 0.78273,-1.102434 0.78273,-1.102434 0,0 0.0937,-0.892966 0.16536,-1.730815 0.006,-0.05516 0.0112,-0.1102 0.0112,-0.16536 0,-0.0056 0,-0.0056 0,-0.0112 0.0164,-0.14884 0.0276,-0.30868 0.0332,-0.463028 0.006,-0.0332 0.006,-0.0662 0.006,-0.0992 0.006,-0.09368 0.0112,-0.176401 0.0112,-0.270081 0.0276,-0.556741 0.0332,-1.030774 0.0332,-1.030774 0,0 -1.00321,0.490573 -1.78042,0.88745 z m 1.12448,2.259996 c 0,0 -0.10472,0.760677 -0.46854,0.942569 -0.3638,0.181921 -1.55993,0.578781 -1.55993,0.578781 0,0 0,-0.578781 0.14332,-1.48277 0.14332,-0.909506 0.32524,-1.273302 0.76068,-1.488287 0.43545,-0.22048 1.16306,-0.578769 1.16306,-0.578769 l -0.0384,2.028476"
       id="path11320" />
    <path
       style="fill:#f3b800;fill-opacity:1;fill-rule:nonzero;stroke:none;stroke-width:1.41111"
       d="m 105.48335,28.716418 c -0.60082,0.226001 -2.48598,0.777213 -3.35139,1.129994 -0.76068,0.308681 -0.60082,-0.529169 -0.60082,-0.529169 0,0 0.226,-4.779048 0.11572,-6.774447 -0.11572,-1.995412 -2.634821,-2.932478 -2.634821,-2.932478 0.452,-0.413412 4.216801,-3.952218 7.259511,-8.957267 3.05374,-5.0105527 -0.3748,-5.3467927 -4.62469,-4.3711357 -4.255391,0.981162 -9.673841,4.2939757 -9.673841,4.2939757 0,0 -0.71658,-1.0528337 -6.77445,-3.6159777 -6.05787,-2.557645 -10.83691,-3.875059 -15.43405,-4.740469 -4.59164,-0.865405 -11.1015,-0.865405 -14.64031,-0.755157 -3.5388,0.11572 -10.50067,1.322918 -16.067953,3.163974 -5.572797,1.846583 -12.722078,5.4570407 -12.722078,5.4570407 -2.524564,-1.4276497 -5.534201,-0.8654047 -8.731263,0.0772 -3.202565,0.937066 -7.380772,4.663292 -9.7510041,7.491025 -2.370236,2.822225 -6.625616,9.332088 -6.735868,13.736316 -0.11572,4.404211 1.394574,5.721614 5.005049,6.399611 3.615982,0.672493 9.2604361,-3.202566 9.2604361,-3.202566 l -1.245763,4.327052 14.193829,-6.735864 c 0,0 -0.303161,1.504827 -0.0772,2.485988 0.226,0.975658 0.490589,1.807988 3.351394,1.466231 2.860808,-0.336241 4.966456,-2.03398 4.966456,-2.03398 0,0 0.08268,0.79375 0.1874,1.12999 0.452005,1.433159 1.697751,0.490577 1.697751,0.490577 l 6.620114,-5.495637 c 0,0 -0.1102,4.139643 -0.1102,5.192461 0,1.058334 0.63941,1.317402 1.3174,1.245746 0.678,-0.0772 2.63482,-1.433159 2.63482,-1.433159 2.23242,-1.813507 2.10565,-2.783644 2.10565,-2.783644 0,0 0.11572,-7.303613 0.14884,-8.356431 0.0384,-1.052834 0.94258,-0.788249 0.94258,-0.788249 0,0 3.00964,0.226 4.13963,0.33624 1.12999,0.115721 0.49059,0.75517 0.49059,0.75517 0,0 -0.19292,0.14884 -1.43317,0.600825 -0.83233,0.30868 -1.09141,1.317402 -1.09141,1.317402 0,0 -1.46624,6.212215 -1.50482,7.413865 -0.0332,1.207162 0.2646,2.673396 2.37022,2.485984 2.11117,-0.1874 5.94764,-2.111152 5.94764,-2.111152 0,0 -0.0662,0.716578 0.226,1.626083 0.41893,1.322919 1.84658,0.10472 1.84658,0.10472 l 5.60586,-4.927876 c 0,0 -0.13788,0.446489 -0.0717,1.278822 0.0882,1.212682 1.65366,0.826826 1.65366,0.826826 l 3.61046,-1.09141 c 0,0 -1.7253,3.015153 -1.87965,3.351393 -0.14884,0.336241 0.0384,0.490589 0.41893,0.336241 0.3748,-0.14884 1.46072,-0.562245 3.0813,-0.865405 1.62058,-0.297681 2.48598,0 2.48598,0 0,0 -0.98116,1.129989 -3.27422,3.505742 -2.29306,2.370216 -5.30821,4.92786 -5.30821,4.92786 0.11572,0.264601 0.1874,2.067072 0.33624,4.966457 0.15432,2.899401 0.0384,5.346809 0.0384,5.346809 1.01423,-0.341761 6.09644,-3.461646 9.71242,-5.947634 3.61048,-2.485985 6.13504,-5.005037 7.37529,-6.54844 1.24574,-1.543406 1.24574,-4.481387 1.16857,-5.231041 -0.0772,-0.755173 0.97566,-0.606341 0.97566,-0.606341 0.34176,0.644921 0.6394,1.322919 2.56314,1.13551 1.91824,-0.19292 5.45705,-2.26 5.45705,-2.26 0,0 0.0112,0.385841 0.0388,1.201662 0.0607,2.144232 2.44187,0.600825 2.44187,0.600825 0,0 5.308211,-5.490121 6.173621,-6.471283 0.86542,-0.981161 0.38036,-0.865405 -0.226,-0.639401 z m -76.85056,1.455211 -2.811204,-6.746888 c 0,0 5.054652,0.04404 5.660993,0.04404 0.606341,0 1.124486,0.347281 0.04404,0.82131 -1.080373,0.479552 -1.945783,0.909505 -1.945783,0.909505 z m 9.679365,4.751476 c -0.843365,0.374841 -0.937077,0.04968 -1.04181,-0.468533 -0.10472,-0.518149 -0.20944,-1.769395 -0.20944,-1.769395 0,0 -1.609559,1.19613 -2.386772,1.559927 -0.782729,0.3638 -2.552125,1.510342 -4.371148,1.14653 -1.25125,-0.253561 -1.444178,-1.19613 -1.444178,-1.758375 0,-0.259081 0.04404,-0.435453 0.04404,-0.435453 0,0 0.931546,-6.223239 1.300862,-7.17684 0.259081,-0.677998 1.295362,-1.041798 1.295362,-1.041798 0,0 1.394575,-0.468529 1.405595,-1.350479 0.0056,-0.518145 -0.832334,-0.622877 -0.832334,-0.622877 l -3.224617,-0.3142 c 0,0 2.706472,-1.041794 4.112083,-1.504811 1.400078,-0.468533 2.855289,-0.937065 4.211283,-1.041798 3.40101,-0.2646 3.533302,2.960025 3.533302,2.960025 0,0 -0.07168,1.488287 -0.14332,3.08681 -0.07168,1.493806 -0.14332,3.097845 -0.17088,3.676614 0,0.0056 0.0056,0.0056 0,0.0112 -0.04952,1.196146 0.832345,0.937078 0.832345,0.937078 l 2.386761,-0.622877 0.006,-0.0056 c -0.77722,1.300874 -4.365636,4.316031 -5.302702,4.734948 z m 12.270074,-14.0505 c -0.022,0.810289 -0.0717,3.103349 -0.1212,5.319233 -0.0552,2.463944 -0.11021,4.83968 -0.13789,4.977492 0,0 0,0.0056 0,0.0056 0,0 0,0.0056 0,0.0056 0,0 0.0607,1.284339 -0.71105,2.204864 -0.0827,0.0992 -0.17088,0.192921 -0.2756,0.281121 -1.3064,1.080374 -2.86082,1.923739 -2.86082,1.923739 0,0 -1.19063,0.826829 -1.14102,-1.659159 0,0 0,-0.0056 0,-0.0056 0.0497,-2.497008 0.56775,-12.011001 0.56775,-12.011001 l 0.57327,-9.359648 c 0,0 0.15436,-0.727601 -0.10472,-0.992181 -0.25908,-0.259081 -1.55995,-0.468549 -1.55995,-0.468549 l 4.73495,-2.2875397 c 0,0 1.24576,-0.777213 1.24576,0.782729 0,1.5599427 -0.15436,9.5635967 -0.20948,11.2833917 z m 12.06612,14.2765 c -0.84887,0.380361 -0.90401,-0.11572 -1.00872,-0.639417 -0.0992,-0.518133 -0.18192,-1.598523 -0.18192,-1.598523 0,0 -1.2733,0.870926 -2.05604,1.234727 -0.77721,0.3638 -2.91593,1.38907 -4.79558,1.234722 -0.92604,-0.0772 -1.12999,-0.815794 -1.12999,-1.449695 0,-0.496089 0.1212,-0.926041 0.1212,-0.926041 0,0 0.915,-5.67753 1.27882,-6.631132 0.25908,-0.672481 1.30086,-1.041798 1.30086,-1.041798 0,0 1.52687,-0.633901 1.52687,-1.152046 0,-0.821313 -0.9536,-0.915025 -0.9536,-0.915025 l -3.10332,-0.562229 c 0,0 2.70097,-1.041798 4.10656,-1.510343 1.4056,-0.463017 2.87735,-0.804773 4.21129,-1.036278 3.93017,-0.683517 3.53881,2.960034 3.53881,2.960034 0,0 -0.1764,1.48277 -0.35276,3.075777 -0.16536,1.488286 -0.33072,3.081309 -0.35276,3.660074 0,0 0,0.0056 0,0.0056 -0.0552,1.20165 0.82131,1.102434 0.82131,1.102434 l 2.87183,-1.052818 c -0.80477,1.311886 -4.91132,4.828649 -5.84288,5.242061 z m 19.38075,9.464385 c -5.11528,4.338071 -11.55349,7.628829 -11.56451,7.634349 0.006,-0.0882 0.0607,-1.499311 0.0552,-3.285258 0,-0.424433 0,-0.876425 -0.0112,-1.328422 -0.044,-2.353692 -0.34724,-3.924659 -0.3638,-4.018371 l 6.2563,-5.754706 c -0.14332,1.284342 -1.91272,4.282955 -1.91272,4.282955 0,0 -0.55673,0.733118 -0.51263,1.096918 0.022,0.220481 0.25908,0.308681 0.97014,0.0112 3.81993,-1.581999 6.66972,-4.475884 6.66972,-4.475884 0,0 0.16536,-0.0384 0.1488,-0.424432 -0.006,-0.226001 -0.0772,-0.584285 -0.28112,-1.141014 -0.55122,-1.466247 -1.41663,-2.607257 -3.70417,-3.108866 -2.23244,-0.490572 -4.37667,0.451993 -4.47037,0.496089 0.0937,-0.1488 1.42766,-2.25998 1.95682,-3.186025 0.17088,-0.297681 0.22048,-0.485069 0.20944,-0.595305 -0.0164,-0.253561 -0.34728,-0.14332 -0.34728,-0.14332 0,0 -2.60725,0.777229 -4.5751,1.185126 -1.10243,0.23152 -1.35599,-0.181921 -1.35599,-0.661462 0,-0.36932 0.14884,-0.777213 0.17088,-0.937065 0.044,-0.363801 0.95912,-4.845197 1.46071,-6.399623 0.50161,-1.554427 1.51035,-1.554427 1.51035,-1.554427 l 9.69037,-3.108869 c 0,0 -0.73312,1.008737 -1.32292,1.692239 -0.60083,0.683513 -0.0937,0.821309 -0.0937,0.821309 0,0 0.5457,0 1.27882,-0.0882 0.73311,-0.09368 0.73311,0.501609 0.73311,1.367018 0,0.82131 -0.16536,1.763891 -0.67799,3.202566 -0.0332,0.0882 -0.0607,0.1764 -0.0992,0.2756 -0.59533,1.598523 -1.55443,1.692223 -1.55443,1.692223 0,0 -2.19385,0.915022 -2.60726,1.278822 -0.4079,0.363801 -0.95912,1.554439 -1.32292,2.789165 -0.044,0.15432 -0.0607,0.281121 -0.0552,0.391361 0.0552,0.766193 1.28984,0.485069 1.28984,0.485069 0,0 3.29076,-0.407897 4.75149,-0.226001 1.46071,0.181921 4.61918,1.278823 4.84518,3.610479 0.0384,0.35828 0.0607,0.700037 0.0552,1.036277 -0.0332,1.813507 -0.89848,3.42857 -5.22001,7.088645 z m -3.13641,-8.836 c 0,0 0.29216,-0.617361 0.65595,-0.35828 0.49608,0.34728 0.94258,1.014237 0.94258,1.014237 0.79927,1.234723 0.50712,2.210368 0.0717,2.574165 -0.43546,0.363801 -4.96646,3.158481 -4.96646,3.158481 z m 9.69589,-1.631598 c -0.13224,0.733113 -0.60634,0.821309 -1.12448,0.435468 -0.51814,-0.39136 -1.8576,-1.819023 -3.58841,-2.29306 -1.73082,-0.474049 -4.36563,-0.30316 -5.40193,-0.17088 -1.0418,0.12684 -1.47175,0.429949 -1.47175,0.429949 l 1.12449,-2.24896 2.8994,-1.598523 c 0,0 1.20717,-0.429953 1.55443,-1.642635 0.42995,-1.52687 1.08037,-4.233343 0.94808,-5.231041 -0.12672,-0.992181 -0.29764,-1.124474 -0.94808,-1.080378 -0.65044,0.04404 -0.78273,0.04404 -0.78273,0.04404 l 1.9072,-2.463948 -11.80154,3.500226 c 0,0 -0.9977,0.132201 -1.42765,1.383555 -0.43546,1.256782 -1.38354,5.622413 -1.38354,5.622413 l -2.76711,1.11897 c 0,0 -0.73311,0.435457 -0.68902,-0.429952 0.0384,-0.865406 0.56223,-7.518597 0.56223,-7.518597 0,0 0.55674,-3.285242 -3.41753,-2.640321 -3.97978,0.650441 -10.76526,2.982081 -10.76526,2.982081 0,0 -0.77721,0.259081 -0.77721,-0.650441 0,-0.903986 0.43547,-12.5732337 0.43547,-12.5732337 0,0 0.25908,-2.033991 -1.59854,-1.256778 -1.86311,0.777214 -6.70279,3.1584657 -7.39731,3.5443217 -0.68903,0.391361 -0.12684,0.562245 0.30316,0.562245 0.43545,0 2.41983,0.04404 2.41983,0.04404 0,0 0.69454,-0.17088 0.69454,1.080378 0,1.251262 -0.99218,15.213566 -0.99218,15.213566 l -3.847503,1.559947 0.341763,-7.044548 c 0,0 -0.0384,-3.847487 -4.404214,-3.373438 l -10.853455,3.241146 3.197062,-5.357813 -9.640785,4.277435 c 0.0056,0 1.642635,1.251262 1.515847,2.546624 -0.12672,1.300863 -0.777213,3.46163 -6.223223,5.40743 0,0 -3.979791,1.21267 -5.4901171,-1.168586 0,0 -1.515847,-2.982078 1.9457951,-8.775364 0,0 3.19705,-6.399611 10.417986,-7.000436 l -1.819011,6.741372 c 0,0 7.739069,-6.829564 15.26317,-9.7289647 7.518595,-2.893885 13.918225,-4.53652 19.623295,-4.92236 5.70509,-0.391361 13.53237,-0.303161 20.22964,1.637103 6.70279,1.951315 12.88193,3.9356937 18.23975,7.5681967 0,0 3.11436,2.072575 4.28295,2.982093 l -2.41984,3.241145 -8.60449,3.070274 c 0,0 4.01837,0.606341 4.757,0.733113 0.73311,0.1322 0.70555,0.562245 0.215,0.865409 -0.46854,0.292161 -1.0804,0.694534 -1.0804,0.694534 0,0 -0.55121,0.2756 -0.8654,1.642622 -0.36932,1.581999 -1.16858,6.267335 -1.29537,7.000449 z m 10.61643,0.716577 c -0.83233,0.766189 -1.4056,0.573265 -1.47175,-0.13224 -0.0607,-0.700038 -0.0607,-1.923744 -0.0607,-1.923744 0,0 -3.26871,2.116672 -5.45153,2.568681 -2.0395,0.418916 -2.84427,-0.115721 -2.83325,-1.234726 0,-0.0772 0.006,-0.159881 0.0164,-0.242521 0.12672,-1.278822 1.15204,-7.050052 1.15204,-7.050052 0,0 0.51263,-0.766189 1.27882,-1.218186 0.77171,-0.446489 1.09141,-0.512641 1.28434,-1.085906 0.19292,-0.578769 -1.28434,-1.030762 -1.28434,-1.030762 l -2.56315,-0.446493 6.41065,-2.370232 2.88285,-3.974259 c 0,0 -5.31924,-4.486903 -11.02433,-6.9232747 -5.70507,-2.430869 -14.22689,-6.217719 -29.54519,-6.217719 -15.31828,0 -31.661859,8.8470147 -36.468463,13.5874707 l 1.411115,-5.512165 c 0,0 -4.486892,-0.12672 -8.84702,3.141929 -4.3380751,3.252182 -5.7546901,10.125858 -5.8924981,11.393644 0,0.0056 0,0.0164 0,0.0276 -0.0276,0.226 -0.05516,0.518145 -0.05516,0.843365 0,1.422135 0.534685,3.489202 4.2829561,3.698655 4.613679,0.25356 8.780867,-3.786851 9.166719,-4.55304 0.385841,-0.771697 0.639405,-1.152034 0.385841,-2.436372 -0.25908,-1.284343 -0.837849,-1.98438 -0.837849,-1.98438 l 6.217718,-2.756089 -2.436384,4.354612 3.208082,7.887914 h -0.0056 l 0.0056,0.0056 -13.014207,6.350011 0.0056,-0.0164 -0.0056,0.0056 1.218186,-4.475884 c -0.0772,0.06068 -4.393191,3.715206 -8.8415151,3.841982 -4.211287,0.121201 -5.710594,-1.559942 -5.672014,-4.784552 0.0056,-0.22048 0.0164,-0.440973 0.0276,-0.672493 0.0164,-0.15984 0.0332,-0.330721 0.06068,-0.507113 0,-0.0112 0.0056,-0.022 0.0056,-0.0332 0.022,-0.15432 0.04952,-0.3142 0.08268,-0.474049 0.0056,-0.0276 0.0112,-0.05516 0.0164,-0.0772 0.0332,-0.15988 0.0662,-0.31972 0.1102,-0.485069 0,-0.0056 0,-0.0112 0,-0.0112 0.986677,-3.996319 4.398707,-10.36837 7.865857,-13.670163 3.9742711,-3.775831 7.4965411,-5.572798 10.3187661,-6.019275 2.822229,-0.4519917 5.63895,0.705558 5.96417,0.766194 0,0 6.724832,-4.1672037 16.66326,-6.8571397 9.93292,-2.689933 19.80521,-2.629297 26.1497,-1.471747 6.34449,1.152046 12.49608,3.136426 15.89157,4.806605 3.39549,1.664678 6.0744,2.9710567 7.05005,3.6490537 0,0 6.34451,-3.5884177 9.166721,-4.1616827 2.82223,-0.578769 5.18695,-0.898486 5.44601,0.38584 0.25908,1.278819 -0.89848,3.0757897 -2.56316,5.1263047 -1.66466,2.050532 -6.603551,7.750106 -6.603551,7.750106 0,0 3.334851,0.06616 3.334851,3.015153 0,0.953601 -0.022,1.978863 -0.044,2.932465 -0.0607,1.995411 -0.14884,3.67111 -0.14884,3.67111 -0.0164,0.15984 -0.0276,0.330721 -0.0332,0.490573 0,0.474049 0.12684,0.848869 0.80477,0.606341 0.84888,-0.30316 2.49702,-0.948098 2.67341,-1.014238 -0.27564,0.281121 -4.05145,4.172707 -4.856211,4.916841"
       id="path11322" />
    <path
       style="fill:#f3b800;fill-opacity:1;fill-rule:nonzero;stroke:none;stroke-width:1.41111"
       d="m 1.9098279,31.020498 c -0.0276,0.1764 -0.04404,0.347281 -0.06068,0.507113 -0.0112,0.23152 -0.022,0.452009 -0.0276,0.672493 0.0056,-0.21496 0.0164,-0.435469 0.0276,-0.661457 0.0164,-0.16536 0.0332,-0.336241 0.06068,-0.518149"
       id="path11324" />
    <path
       style="fill:#9ccfa8;fill-opacity:1;fill-rule:nonzero;stroke:none;stroke-width:1.41111"
       d="m 1.9098279,31.020498 c -0.0276,0.1764 -0.04404,0.347281 -0.06068,0.507113 -0.0112,0.23152 -0.022,0.452009 -0.0276,0.672493 0.0056,-0.21496 0.0164,-0.435469 0.0276,-0.661457 0.0164,-0.16536 0.0332,-0.336241 0.06068,-0.518149"
       id="path11326" />
    <path
       style="fill:#f3b800;fill-opacity:1;fill-rule:nonzero;stroke:none;stroke-width:1.41111"
       d="m 16.335161,33.142674 -1.218186,4.475884 0.0056,-0.0056 1.212686,-4.470363"
       id="path11328" />
    <path
       style="fill:#9ccfa8;fill-opacity:1;fill-rule:nonzero;stroke:none;stroke-width:1.41111"
       d="m 16.335161,33.142674 -1.218186,4.475884 0.0056,-0.0056 1.212686,-4.470363"
       id="path11330" />
    <path
       style="fill:#7fc2a1;fill-opacity:1;fill-rule:nonzero;stroke:none;stroke-width:1.41111"
       d="m 30.148637,26.191838 h 5.170405 c 0.677997,-0.341761 1.355994,-0.666961 1.355994,-0.666961 l -0.529165,4.034895 c 0,0 -0.05516,0.496088 -0.650441,0.755169 -0.722093,0.30868 -1.747351,0.600825 -1.747351,0.600825 0,-0.0056 -0.578785,0.20396 -0.529169,-0.529169 0,0 0,0.0056 0,0.0056 -0.05516,0.738617 0.529169,0.529165 0.529169,0.529165 0,0 1.025258,-0.292161 1.747351,-0.595321 0.595321,-0.259081 0.650441,-0.755169 0.650441,-0.755169 l 0.440973,-3.378954 h 3.974275 c 0.07168,-1.598523 0.14332,-3.086814 0.14332,-3.086814 0,0 -0.1322,-3.224605 -3.533302,-2.960021 -1.355994,0.104721 -2.811205,0.573265 -4.211283,1.041798 -1.405611,0.463013 -4.112087,1.504811 -4.112087,1.504811 l 3.224621,0.3142 c 0,0 0.83785,0.10472 0.832334,0.622877 -0.0112,0.881946 -1.405599,1.350479 -1.405599,1.350479 0,0 -1.036277,0.3638 -1.295358,1.041798 -0.36932,0.953601 -1.300866,7.17684 -1.300866,7.17684 0,0 -0.04404,0.1764 -0.04404,0.435453 0,-0.253561 0.04404,-0.429953 0.04404,-0.429953 0,0 0.848869,-5.677514 1.245746,-7.011468"
       id="path11332" />
    <path
       style="fill:#7fc2a1;fill-opacity:1;fill-rule:nonzero;stroke:none;stroke-width:1.41111"
       d="m 49.545929,8.8064803 -4.73495,2.2875437 c 0,0 1.30088,0.20948 1.55995,0.468545 0.25908,0.2646 0.10472,0.992181 0.10472,0.992181 l -0.57327,9.359648 c 0,0 -0.51814,9.513997 -0.56774,12.011005 0,0 0,0.0056 0,0.0056 0.0276,-1.372534 0.19844,-4.872756 0.34176,-7.739081 h 4.78455 c 0.0497,-2.215888 0.0992,-4.508948 0.1212,-5.319237 0.0552,-1.719795 0.20948,-9.723445 0.20948,-11.2833917 0,-1.559942 -1.24576,-0.782729 -1.24576,-0.782729"
       id="path11334" />
    <path
       style="fill:#7fc2a1;fill-opacity:1;fill-rule:nonzero;stroke:none;stroke-width:1.41111"
       d="m 54.876199,26.384766 c 0.0276,-0.07168 0.0607,-0.13224 0.10472,-0.19292 h 4.43177 c 0.77722,-0.396881 1.78043,-0.88745 1.78043,-0.88745 0,0 -0.006,0.474037 -0.0332,1.030778 0.006,-0.04404 0.006,-0.0992 0.0112,-0.14332 h 3.97979 c 0.1764,-1.593007 0.35276,-3.075777 0.35276,-3.075777 0,0 0.39136,-3.643551 -3.53882,-2.960034 -1.33394,0.231521 -2.80569,0.573261 -4.21128,1.036278 -1.4056,0.468545 -4.10657,1.510343 -4.10657,1.510343 l 3.10335,0.562229 c 0,0 0.9536,0.09372 0.9536,0.915025 0,0.518145 -1.52686,1.152046 -1.52686,1.152046 0,0 -1.0418,0.369321 -1.30087,1.041798 -0.3638,0.953602 -1.27882,6.631132 -1.27882,6.631132 0,0 -0.1212,0.429952 -0.1212,0.926041 0,-0.490585 0.1212,-0.915021 0.1212,-0.915021 0,0 0.91501,-5.67753 1.27882,-6.631132"
       id="path11336" />
    <path
       style="fill:#f3b800;fill-opacity:1;fill-rule:nonzero;stroke:none;stroke-width:1.41111"
       d="m 61.149039,26.605251 c 0,0.0332 0,0.0662 -0.006,0.0992 0.006,-0.0332 0.006,-0.0662 0.006,-0.0992"
       id="path11338" />
    <path
       style="fill:#9ccfa8;fill-opacity:1;fill-rule:nonzero;stroke:none;stroke-width:1.41111"
       d="m 61.149039,26.605251 c 0,0.0332 0,0.0662 -0.006,0.0992 0.006,-0.0332 0.006,-0.0662 0.006,-0.0992"
       id="path11340" />
    <path
       style="fill:#7fc2a1;fill-opacity:1;fill-rule:nonzero;stroke:none;stroke-width:1.41111"
       d="m 90.556419,26.858815 c 0,0 0.21496,-0.319681 0.57327,-0.666977 h 4.4869 c 0.73863,-0.396881 1.37804,-0.711061 1.37804,-0.711061 l -0.28113,3.687634 c 0,0 0,0.0112 0,0.0112 l 0.23153,-2.987597 h 3.819911 c 0.022,-0.953602 0.044,-1.97886 0.044,-2.932465 0,-2.949013 -3.334851,-3.015153 -3.334851,-3.015153 0,0 4.938891,-5.69957 6.603551,-7.750102 1.66468,-2.050519 2.82223,-3.8474857 2.56316,-5.1263087 -0.25908,-1.284338 -2.62378,-0.964621 -5.44601,-0.38584 -2.822211,0.573265 -9.166721,4.1616867 -9.166721,4.1616867 -0.97564,-0.678001 -3.65456,-1.9843797 -7.05005,-3.6490577 -3.39549,-1.670179 -9.54707,-3.654559 -15.89157,-4.806605 -6.34449,-1.15755 -16.21678,-1.218186 -26.14969,1.471751 -9.938433,2.689932 -16.663265,6.8571357 -16.663265,6.8571357 -0.32524,-0.06068 -3.141941,-1.2181857 -5.96417,-0.766194 -2.822225,0.446477 -6.344495,2.243448 -10.3187661,6.019275 -3.46715,3.301793 -6.87918,9.673848 -7.865857,13.670163 0.2756,-1.107934 0.733129,-2.397792 1.328434,-3.74827 h 4.745972 c 0.13788,-1.267786 1.554423,-8.141462 5.8924981,-11.39364 4.360128,-3.268705 8.84702,-3.141929 8.84702,-3.141929 L 21.52751,17.168622 C 26.334154,12.42817 42.677729,3.5811513 57.996019,3.5811513 c 15.3183,0 23.84011,3.78685 29.54519,6.217719 5.70509,2.4363717 11.02432,6.9232747 11.02432,6.9232747 l -2.88285,3.974259 -6.41064,2.370236 2.56314,0.446489 c 0,0 1.47727,0.451993 1.28434,1.030762 -0.19292,0.573265 -0.51263,0.639417 -1.28434,1.08591 -0.76619,0.451993 -1.27882,1.218186 -1.27882,1.218186 0,0 -1.02526,5.771226 -1.15203,7.050048 -0.0112,0.08268 -0.0164,0.16536 -0.0164,0.242561 0,-0.0772 0.006,-0.148841 0.0164,-0.231521 0.12672,-1.278822 1.15203,-7.050052 1.15203,-7.050052 z m 6.59806,-12.418901 -2.68994,-1.747351 c 0,0 1.02527,-1.819028 4.71291,-3.5884227 5.787751,-2.772624 4.051421,0.84887 3.329331,2.4363727 -0.71106,1.587502 -3.147441,4.586119 -3.147441,4.586119 0,0 -0.56774,-0.562245 -2.20486,-1.686718"
       id="path11342" />
    <path
       style="fill:#f3b800;fill-opacity:1;fill-rule:nonzero;stroke:none;stroke-width:1.41111"
       d="m 1.9153439,30.987422 c 0.022,-0.15432 0.04952,-0.3142 0.08268,-0.474049 -0.0332,0.159841 -0.06068,0.319721 -0.08268,0.474049"
       id="path11344" />
    <path
       style="fill:#9ccfa8;fill-opacity:1;fill-rule:nonzero;stroke:none;stroke-width:1.41111"
       d="m 1.9153439,30.987422 c 0.022,-0.15432 0.04952,-0.3142 0.08268,-0.474049 -0.0332,0.159841 -0.06068,0.319721 -0.08268,0.474049"
       id="path11346" />
    <path
       style="fill:#f3b800;fill-opacity:1;fill-rule:nonzero;stroke:none;stroke-width:1.41111"
       d="m 2.0145609,30.436213 c 0.0332,-0.15988 0.0662,-0.31972 0.1102,-0.485069 -0.04404,0.165361 -0.0772,0.325201 -0.1102,0.485069"
       id="path11348" />
    <path
       style="fill:#9ccfa8;fill-opacity:1;fill-rule:nonzero;stroke:none;stroke-width:1.41111"
       d="m 2.0145609,30.436213 c 0.0332,-0.15988 0.0662,-0.31972 0.1102,-0.485069 -0.04404,0.165361 -0.0772,0.325201 -0.1102,0.485069"
       id="path11350" />
    <path
       style="fill:#f3b800;fill-opacity:1;fill-rule:nonzero;stroke:none;stroke-width:1.41111"
       d="m 12.427043,30.772454 c 4.613675,0.25356 8.780863,-3.786863 9.166719,-4.553056 0.0056,-0.0112 0.0056,-0.022 0.0112,-0.0276 h 4.453828 l 2.067072,5.082221 h 0.0056 l -3.208082,-7.88791 2.436384,-4.354612 -6.217718,2.756085 c 0,0 0.578769,0.700041 0.837849,1.98438 0.25356,1.284338 0,1.664679 -0.385841,2.436372 -0.38584,0.766193 -4.55304,4.806604 -9.166719,4.553044 -3.7482711,-0.209441 -4.2829561,-2.276524 -4.2829561,-3.698655 0,1.422131 0.523649,3.500222 4.2829561,3.709691"
       id="path11352" />
    <path
       style="fill:#7fc2a1;fill-opacity:1;fill-rule:nonzero;stroke:none;stroke-width:1.41111"
       d="m 12.427043,30.772454 c 4.613675,0.25356 8.780863,-3.786863 9.166719,-4.553056 0.0056,-0.0112 0.0056,-0.022 0.0112,-0.0276 h 4.453828 l 2.067072,5.082221 h 0.0056 l -3.208082,-7.88791 2.436384,-4.354612 -6.217718,2.756085 c 0,0 0.578769,0.700041 0.837849,1.98438 0.25356,1.284338 0,1.664679 -0.385841,2.436372 -0.38584,0.766193 -4.55304,4.806604 -9.166719,4.553044 -3.7482711,-0.209441 -4.2829561,-2.276524 -4.2829561,-3.698655 0,1.422131 0.523649,3.500222 4.2829561,3.709691"
       id="path11354" />
    <path
       style="fill:#7fc2a1;fill-opacity:1;fill-rule:nonzero;stroke:none;stroke-width:1.41111"
       d="m 70.227569,26.191838 h 3.18603 c 0.0882,-0.275601 0.36381,-0.854386 1.14102,-1.17409 1.03628,-0.429953 3.93568,-1.433155 3.93568,-1.433155 l -0.71658,2.756073 c 0,0 -0.14332,0.821313 -0.89297,1.10795 -0.74965,0.28664 -2.75608,0.859893 -2.75608,0.859893 0,0 -0.88195,0.369321 -0.85989,-0.468532 -0.0276,0.854385 0.85989,0.479564 0.85989,0.479564 0,0 2.00643,-0.573265 2.75608,-0.859901 0.74966,-0.286641 0.89297,-1.10795 0.89297,-1.10795 l 0.044,-0.15984 h 4.12861 c 0.51263,-1.438675 0.67799,-2.381252 0.67799,-3.202566 0,-0.865405 0,-1.460714 -0.73311,-1.367014 -0.73312,0.0882 -1.27882,0.0882 -1.27882,0.0882 0,0 -0.50713,-0.13772 0.0937,-0.821309 0.5898,-0.683502 1.32292,-1.692235 1.32292,-1.692235 l -9.69037,3.108865 c 0,0 -1.00873,0 -1.51034,1.554427 -0.5016,1.554426 -1.41662,6.035814 -1.46072,6.399627 -0.022,0.15984 -0.17088,0.567745 -0.17088,0.937061 0,-0.3638 0.14884,-0.766189 0.17088,-0.926041 0.0276,-0.242521 0.44097,-2.27652 0.85989,-4.079007"
       id="path11356" />
    <path
       style="fill:#f3b800;fill-opacity:1;fill-rule:nonzero;stroke:none;stroke-width:1.41111"
       d="m 38.312155,34.912081 c -0.843365,0.37484 -0.937077,0.04968 -1.04181,-0.468529 -0.0992,-0.518149 -0.20396,-1.769411 -0.20396,-1.769411 0,0 -1.615063,1.201662 -2.392276,1.565463 -0.782729,0.35828 -2.552125,1.50481 -4.371148,1.14101 -1.245746,-0.248041 -1.444178,-1.18511 -1.444178,-1.747355 0,0.562245 0.19292,1.504826 1.444178,1.758375 1.819023,0.3638 3.588419,-0.782714 4.371148,-1.14653 0.777213,-0.363801 2.386772,-1.559927 2.386772,-1.559927 0,0 0.10472,1.251246 0.20944,1.769395 0.104721,0.518145 0.198441,0.843366 1.04181,0.468533 0.937066,-0.418921 4.525488,-3.434074 5.302698,-4.734952 l -0.006,0.0056 c -0.79925,1.306382 -4.365632,4.304999 -5.297182,4.718412"
       id="path11358" />
    <path
       style="fill:#008285;fill-opacity:1;fill-rule:nonzero;stroke:none;stroke-width:1.41111"
       d="m 38.312155,34.912081 c -0.843365,0.37484 -0.937077,0.04968 -1.04181,-0.468529 -0.0992,-0.518149 -0.20396,-1.769411 -0.20396,-1.769411 0,0 -1.615063,1.201662 -2.392276,1.565463 -0.782729,0.35828 -2.552125,1.50481 -4.371148,1.14101 -1.245746,-0.248041 -1.444178,-1.18511 -1.444178,-1.747355 0,0.562245 0.19292,1.504826 1.444178,1.758375 1.819023,0.3638 3.588419,-0.782714 4.371148,-1.14653 0.777213,-0.363801 2.386772,-1.559927 2.386772,-1.559927 0,0 0.10472,1.251246 0.20944,1.769395 0.104721,0.518145 0.198441,0.843366 1.04181,0.468533 0.937066,-0.418921 4.525488,-3.434074 5.302698,-4.734952 l -0.006,0.0056 c -0.79925,1.306382 -4.365632,4.304999 -5.297182,4.718412"
       id="path11360" />
    <path
       style="fill:#f3b800;fill-opacity:1;fill-rule:nonzero;stroke:none;stroke-width:1.41111"
       d="m 7.4936459,36.973632 c -4.205779,0.121201 -5.71059,-1.559942 -5.672014,-4.773528 -0.0384,3.224606 1.460731,4.905821 5.672014,4.784552 4.4483241,-0.12672 8.7643431,-3.781346 8.8415151,-3.841982 v -0.0112 c 0,0 -4.354611,3.71519 -8.8415151,3.841978"
       id="path11362" />
    <path
       style="fill:#008285;fill-opacity:1;fill-rule:nonzero;stroke:none;stroke-width:1.41111"
       d="m 7.4936459,36.973632 c -4.205779,0.121201 -5.71059,-1.559942 -5.672014,-4.773528 -0.0384,3.224606 1.460731,4.905821 5.672014,4.784552 4.4483241,-0.12672 8.7643431,-3.781346 8.8415151,-3.841982 v -0.0112 c 0,0 -4.354611,3.71519 -8.8415151,3.841978"
       id="path11364" />
    <path
       style="fill:#f3b800;fill-opacity:1;fill-rule:nonzero;stroke:none;stroke-width:1.41111"
       d="m 8.1440869,27.062763 c 0,-0.3252 0.0276,-0.617361 0.05516,-0.843365 0,-0.0112 0,-0.022 0,-0.0276 0,0.0056 0,0.0112 0,0.0164 -0.0276,0.226 -0.05516,0.523665 -0.05516,0.854385"
       id="path11366" />
    <path
       style="fill:#008285;fill-opacity:1;fill-rule:nonzero;stroke:none;stroke-width:1.41111"
       d="m 8.1440869,27.062763 c 0,-0.3252 0.0276,-0.617361 0.05516,-0.843365 0,-0.0112 0,-0.022 0,-0.0276 0,0.0056 0,0.0112 0,0.0164 -0.0276,0.226 -0.05516,0.523665 -0.05516,0.854385"
       id="path11368" />
    <path
       style="fill:#f3b800;fill-opacity:1;fill-rule:nonzero;stroke:none;stroke-width:1.41111"
       d="m 15.116975,37.629578 13.014207,-6.350011 -0.0056,-0.0056 -13.003199,6.338974 -0.0056,0.0164"
       id="path11370" />
    <path
       style="fill:#008285;fill-opacity:1;fill-rule:nonzero;stroke:none;stroke-width:1.41111"
       d="m 15.116975,37.629578 13.014207,-6.350011 -0.0056,-0.0056 -13.003199,6.338974 -0.0056,0.0164"
       id="path11372" />
    <path
       style="fill:#f3b800;fill-opacity:1;fill-rule:nonzero;stroke:none;stroke-width:1.41111"
       d="m 45.334649,33.930919 c -0.0497,2.485988 1.14101,1.659159 1.14101,1.659159 0,0 1.55442,-0.843365 2.86082,-1.923739 0.10472,-0.0882 0.19292,-0.181921 0.2756,-0.281121 0.7717,-0.920525 0.71106,-2.204864 0.71106,-2.204864 0,0 0,-0.0056 0,-0.0056 0,0 0,-0.0056 0,-0.0056 0.0276,-0.13788 0.0827,-2.513548 0.13788,-4.977492 h -4.78455 c -0.14332,2.866325 -0.3142,6.366551 -0.34176,7.739081"
       id="path11374" />
    <path
       style="fill:#008285;fill-opacity:1;fill-rule:nonzero;stroke:none;stroke-width:1.41111"
       d="m 45.334649,33.930919 c -0.0497,2.485988 1.14101,1.659159 1.14101,1.659159 0,0 1.55442,-0.843365 2.86082,-1.923739 0.10472,-0.0882 0.19292,-0.181921 0.2756,-0.281121 0.7717,-0.920525 0.71106,-2.204864 0.71106,-2.204864 0,0 0,-0.0056 0,-0.0056 0,0 0,-0.0056 0,-0.0056 0.0276,-0.13788 0.0827,-2.513548 0.13788,-4.977492 h -4.78455 c -0.14332,2.866325 -0.3142,6.366551 -0.34176,7.739081"
       id="path11376" />
    <path
       style="fill:#f3b800;fill-opacity:1;fill-rule:nonzero;stroke:none;stroke-width:1.41111"
       d="m 30.302973,35.380614 c 1.819023,0.3638 3.588419,-0.78273 4.371148,-1.14101 0.777213,-0.363801 2.392276,-1.565463 2.392276,-1.565463 0,0 0.10472,1.251262 0.20396,1.769411 0.104721,0.518145 0.198441,0.843365 1.04181,0.468529 0.931546,-0.413413 4.497922,-3.41203 5.297182,-4.718408 l -2.386761,0.622877 c 0,0 -0.881945,0.25908 -0.832345,-0.937078 0.0056,-0.0056 0,-0.0056 0,-0.0112 0.0276,-0.578769 0.0992,-2.182808 0.17088,-3.676614 h -3.974275 l -0.440973,3.378954 c 0,0 -0.05516,0.496104 -0.650441,0.755173 -0.722093,0.30316 -1.747351,0.595317 -1.747351,0.595317 0,0 -0.584285,0.20944 -0.529169,-0.529165 0,0 0,-0.0056 0,-0.0056 0,-0.0056 0,-0.0056 0,-0.0056 0.0332,-0.518133 0.253561,-2.585204 0.253561,-2.585204 0,0 0.0882,-0.650438 0.738633,-1.025258 0.25356,-0.14332 0.677981,-0.363801 1.107934,-0.578785 h -5.170405 c -0.396881,1.333954 -1.245746,7.011472 -1.245746,7.011472 0,0 -0.04404,0.1764 -0.04404,0.429953 0,0.562245 0.19844,1.499306 1.444174,1.747355"
       id="path11378" />
    <path
       style="fill:#008285;fill-opacity:1;fill-rule:nonzero;stroke:none;stroke-width:1.41111"
       d="m 30.302973,35.380614 c 1.819023,0.3638 3.588419,-0.78273 4.371148,-1.14101 0.777213,-0.363801 2.392276,-1.565463 2.392276,-1.565463 0,0 0.10472,1.251262 0.20396,1.769411 0.104721,0.518145 0.198441,0.843365 1.04181,0.468529 0.931546,-0.413413 4.497922,-3.41203 5.297182,-4.718408 l -2.386761,0.622877 c 0,0 -0.881945,0.25908 -0.832345,-0.937078 0.0056,-0.0056 0,-0.0056 0,-0.0112 0.0276,-0.578769 0.0992,-2.182808 0.17088,-3.676614 h -3.974275 l -0.440973,3.378954 c 0,0 -0.05516,0.496104 -0.650441,0.755173 -0.722093,0.30316 -1.747351,0.595317 -1.747351,0.595317 0,0 -0.584285,0.20944 -0.529169,-0.529165 0,0 0,-0.0056 0,-0.0056 0,-0.0056 0,-0.0056 0,-0.0056 0.0332,-0.518133 0.253561,-2.585204 0.253561,-2.585204 0,0 0.0882,-0.650438 0.738633,-1.025258 0.25356,-0.14332 0.677981,-0.363801 1.107934,-0.578785 h -5.170405 c -0.396881,1.333954 -1.245746,7.011472 -1.245746,7.011472 0,0 -0.04404,0.1764 -0.04404,0.429953 0,0.562245 0.19844,1.499306 1.444174,1.747355"
       id="path11380" />
    <path
       style="fill:#f3b800;fill-opacity:1;fill-rule:nonzero;stroke:none;stroke-width:1.41111"
       d="m 64.798089,29.857432 c 0,0 0,-0.0056 0,-0.0056 0.022,-0.578769 0.1874,-2.171792 0.35276,-3.660078 h -3.97979 c -0.006,0.04404 -0.006,0.0992 -0.0112,0.14332 0,0.0882 -0.006,0.18188 -0.0112,0.270081 0,0.0332 0,0.0662 -0.006,0.0992 -0.006,0.15436 -0.0164,0.3142 -0.0332,0.463028 0,0.0056 0,0.0056 0,0.0112 0,0.05516 -0.006,0.1102 -0.0112,0.16536 -0.0717,0.837849 -0.16536,1.730815 -0.16536,1.730815 0,0 0,0.672481 -0.78273,1.102434 -0.56225,0.30868 -1.28434,0.573265 -1.75287,0.722093 -0.4079,0.13224 -0.74414,-0.12672 -0.75517,-0.545705 -0.006,-0.06068 0,-0.1212 0.0112,-0.1874 0.0937,-0.523653 0.24252,-2.182824 0.31972,-2.590721 0.0717,-0.407897 0.25908,-0.711061 0.5953,-0.931545 0.1102,-0.0772 0.44649,-0.253561 0.84337,-0.452009 h -4.43178 c -0.044,0.06068 -0.0772,0.1212 -0.10472,0.19292 -0.3638,0.953602 -1.27882,6.631132 -1.27882,6.631132 0,0 -0.1212,0.424432 -0.1212,0.915021 0,0.633901 0.20396,1.372519 1.12999,1.449695 1.87965,0.15436 4.01837,-0.870926 4.79559,-1.234726 0.78273,-0.363801 2.05603,-1.234723 2.05603,-1.234723 0,0 0.0827,1.08039 0.18192,1.598523 0.10472,0.523665 0.15984,1.019754 1.00872,0.639417 0.93156,-0.413412 5.03811,-3.930175 5.84289,-5.242061 l -2.87187,1.052886 c 0,0 -0.87644,0.0992 -0.82131,-1.102434"
       id="path11382" />
    <path
       style="fill:#008285;fill-opacity:1;fill-rule:nonzero;stroke:none;stroke-width:1.41111"
       d="m 64.798089,29.857432 c 0,0 0,-0.0056 0,-0.0056 0.022,-0.578769 0.1874,-2.171792 0.35276,-3.660078 h -3.97979 c -0.006,0.04404 -0.006,0.0992 -0.0112,0.14332 0,0.0882 -0.006,0.18188 -0.0112,0.270081 0,0.0332 0,0.0662 -0.006,0.0992 -0.006,0.15436 -0.0164,0.3142 -0.0332,0.463028 0,0.0056 0,0.0056 0,0.0112 0,0.05516 -0.006,0.1102 -0.0112,0.16536 -0.0717,0.837849 -0.16536,1.730815 -0.16536,1.730815 0,0 0,0.672481 -0.78273,1.102434 -0.56225,0.30868 -1.28434,0.573265 -1.75287,0.722093 -0.4079,0.13224 -0.74414,-0.12672 -0.75517,-0.545705 -0.006,-0.06068 0,-0.1212 0.0112,-0.1874 0.0937,-0.523653 0.24252,-2.182824 0.31972,-2.590721 0.0717,-0.407897 0.25908,-0.711061 0.5953,-0.931545 0.1102,-0.0772 0.44649,-0.253561 0.84337,-0.452009 h -4.43178 c -0.044,0.06068 -0.0772,0.1212 -0.10472,0.19292 -0.3638,0.953602 -1.27882,6.631132 -1.27882,6.631132 0,0 -0.1212,0.424432 -0.1212,0.915021 0,0.633901 0.20396,1.372519 1.12999,1.449695 1.87965,0.15436 4.01837,-0.870926 4.79559,-1.234726 0.78273,-0.363801 2.05603,-1.234723 2.05603,-1.234723 0,0 0.0827,1.08039 0.18192,1.598523 0.10472,0.523665 0.15984,1.019754 1.00872,0.639417 0.93156,-0.413412 5.03811,-3.930175 5.84289,-5.242061 l -2.87187,1.052886 c 0,0 -0.87644,0.0992 -0.82131,-1.102434"
       id="path11384" />
    <path
       style="fill:#f3b800;fill-opacity:1;fill-rule:nonzero;stroke:none;stroke-width:1.41111"
       d="m 61.143519,26.704467 c -0.006,0.15436 -0.0164,0.3142 -0.0332,0.463028 0.0164,-0.14884 0.0276,-0.30868 0.0332,-0.463028"
       id="path11386" />
    <path
       style="fill:#9ccfa8;fill-opacity:1;fill-rule:nonzero;stroke:none;stroke-width:1.41111"
       d="m 61.143519,26.704467 c -0.006,0.15436 -0.0164,0.3142 -0.0332,0.463028 0.0164,-0.14884 0.0276,-0.30868 0.0332,-0.463028"
       id="path11388" />
    <path
       style="fill:#008285;fill-opacity:1;fill-rule:nonzero;stroke:none;stroke-width:1.41111"
       d="m 61.143519,26.704467 c -0.006,0.15436 -0.0164,0.3142 -0.0332,0.463028 0.0164,-0.14884 0.0276,-0.30868 0.0332,-0.463028"
       id="path11390" />
    <path
       style="fill:#f3b800;fill-opacity:1;fill-rule:nonzero;stroke:none;stroke-width:1.41111"
       d="m 61.160059,26.335166 c 0,0.09368 -0.006,0.1764 -0.0112,0.270081 0.006,-0.0882 0.0112,-0.181881 0.0112,-0.270081"
       id="path11392" />
    <path
       style="fill:#9ccfa8;fill-opacity:1;fill-rule:nonzero;stroke:none;stroke-width:1.41111"
       d="m 61.160059,26.335166 c 0,0.09368 -0.006,0.1764 -0.0112,0.270081 0.006,-0.0882 0.0112,-0.181881 0.0112,-0.270081"
       id="path11394" />
    <path
       style="fill:#008285;fill-opacity:1;fill-rule:nonzero;stroke:none;stroke-width:1.41111"
       d="m 61.160059,26.335166 c 0,0.09368 -0.006,0.1764 -0.0112,0.270081 0.006,-0.0882 0.0112,-0.181881 0.0112,-0.270081"
       id="path11396" />
    <path
       style="fill:#f3b800;fill-opacity:1;fill-rule:nonzero;stroke:none;stroke-width:1.41111"
       d="m 82.348819,32.878089 c -1.46073,-0.18188 -4.75149,0.226001 -4.75149,0.226001 0,0 -1.23472,0.28112 -1.28984,-0.485073 -0.006,-0.1102 0.0112,-0.237041 0.0552,-0.391361 0.3638,-1.234726 0.91502,-2.425352 1.32292,-2.789165 0.41341,-0.3638 2.60725,-1.278822 2.60725,-1.278822 0,0 0.95911,-0.09368 1.55443,-1.692219 0.0384,-0.0992 0.0662,-0.18744 0.0992,-0.2756 h -4.12865 l -0.044,0.15984 c 0,0 -0.14332,0.821321 -0.89296,1.10795 -0.74966,0.28664 -2.75609,0.859901 -2.75609,0.859901 0,0 -0.88745,0.374801 -0.85989,-0.479564 0,-0.022 0,-0.04404 0,-0.0662 0.0717,-0.931562 0.1102,-1.433171 0.1102,-1.433171 0,0 0.006,-0.06068 0.0388,-0.14884 h -3.18604 c -0.41892,1.802487 -0.83233,3.836466 -0.85989,4.079007 -0.022,0.15984 -0.17088,0.562245 -0.17088,0.926045 0,0.479553 0.25356,0.892966 1.356,0.661458 1.96784,-0.407893 4.57509,-1.185122 4.57509,-1.185122 0,0 0.33072,-0.110201 0.34728,0.14332 0.0112,0.1102 -0.0384,0.29764 -0.20944,0.595305 -0.52916,0.926041 -1.86312,3.037209 -1.95682,3.186025 0.0937,-0.04404 2.23793,-0.986665 4.47037,-0.496089 2.28754,0.501609 3.15295,1.642619 3.70418,3.108866 0.20396,0.556725 0.2756,0.915009 0.28112,1.141014 0.0164,0.38584 -0.1488,0.424432 -0.1488,0.424432 0,0 -2.8498,2.893885 -6.66973,4.475884 -0.71106,0.297641 -0.94808,0.209441 -0.97014,-0.0112 -0.044,-0.3638 0.51263,-1.096918 0.51263,-1.096918 0,0 1.76941,-2.998613 1.91272,-4.282955 l -6.2563,5.754706 c 0.0164,0.09368 0.31969,1.664675 0.36381,4.018371 0.0112,0.451993 0.0112,0.903989 0.0112,1.328422 0.006,1.785947 -0.0497,3.197062 -0.0552,3.285258 0.0112,-0.0056 6.44922,-3.296278 11.56451,-7.634353 4.32153,-3.660075 5.18695,-5.275138 5.22002,-7.088645 0.006,-0.33624 -0.0164,-0.677997 -0.0552,-1.036277 -0.226,-2.331652 -3.38447,-3.42857 -4.84519,-3.610475"
       id="path11398" />
    <path
       style="fill:#008285;fill-opacity:1;fill-rule:nonzero;stroke:none;stroke-width:1.41111"
       d="m 82.348819,32.878089 c -1.46073,-0.18188 -4.75149,0.226001 -4.75149,0.226001 0,0 -1.23472,0.28112 -1.28984,-0.485073 -0.006,-0.1102 0.0112,-0.237041 0.0552,-0.391361 0.3638,-1.234726 0.91502,-2.425352 1.32292,-2.789165 0.41341,-0.3638 2.60725,-1.278822 2.60725,-1.278822 0,0 0.95911,-0.09368 1.55443,-1.692219 0.0384,-0.0992 0.0662,-0.18744 0.0992,-0.2756 h -4.12865 l -0.044,0.15984 c 0,0 -0.14332,0.821321 -0.89296,1.10795 -0.74966,0.28664 -2.75609,0.859901 -2.75609,0.859901 0,0 -0.88745,0.374801 -0.85989,-0.479564 0,-0.022 0,-0.04404 0,-0.0662 0.0717,-0.931562 0.1102,-1.433171 0.1102,-1.433171 0,0 0.006,-0.06068 0.0388,-0.14884 h -3.18604 c -0.41892,1.802487 -0.83233,3.836466 -0.85989,4.079007 -0.022,0.15984 -0.17088,0.562245 -0.17088,0.926045 0,0.479553 0.25356,0.892966 1.356,0.661458 1.96784,-0.407893 4.57509,-1.185122 4.57509,-1.185122 0,0 0.33072,-0.110201 0.34728,0.14332 0.0112,0.1102 -0.0384,0.29764 -0.20944,0.595305 -0.52916,0.926041 -1.86312,3.037209 -1.95682,3.186025 0.0937,-0.04404 2.23793,-0.986665 4.47037,-0.496089 2.28754,0.501609 3.15295,1.642619 3.70418,3.108866 0.20396,0.556725 0.2756,0.915009 0.28112,1.141014 0.0164,0.38584 -0.1488,0.424432 -0.1488,0.424432 0,0 -2.8498,2.893885 -6.66973,4.475884 -0.71106,0.297641 -0.94808,0.209441 -0.97014,-0.0112 -0.044,-0.3638 0.51263,-1.096918 0.51263,-1.096918 0,0 1.76941,-2.998613 1.91272,-4.282955 l -6.2563,5.754706 c 0.0164,0.09368 0.31969,1.664675 0.36381,4.018371 0.0112,0.451993 0.0112,0.903989 0.0112,1.328422 0.006,1.785947 -0.0497,3.197062 -0.0552,3.285258 0.0112,-0.0056 6.44922,-3.296278 11.56451,-7.634353 4.32153,-3.660075 5.18695,-5.275138 5.22002,-7.088645 0.006,-0.33624 -0.0164,-0.677997 -0.0552,-1.036277 -0.226,-2.331652 -3.38447,-3.42857 -4.84519,-3.610475"
       id="path11400" />
    <path
       style="fill:#f3b800;fill-opacity:1;fill-rule:nonzero;stroke:none;stroke-width:1.41111"
       d="m 2.1247969,29.940108 c 0,0 0,0.0056 0,0.0112 -0.04404,0.165361 -0.0772,0.325201 -0.1102,0.485073 -0.0056,0.022 -0.0112,0.04952 -0.0164,0.0772 -0.0332,0.159841 -0.06068,0.319721 -0.08268,0.474049 0,0.0112 -0.0056,0.022 -0.0056,0.0332 -0.0276,0.18188 -0.04404,0.352761 -0.06068,0.518145 -0.0112,0.226 -0.022,0.446477 -0.0276,0.661461 -0.0384,3.213586 1.466235,4.894801 5.672014,4.773528 4.4869041,-0.12672 8.8415151,-3.841982 8.8415151,-3.841982 v 0.0112 l -1.212682,4.470367 13.003199,-6.338978 -2.067068,-5.082225 h -4.453828 c -0.0056,0.0056 -0.0056,0.0164 -0.0112,0.0276 -0.38584,0.766189 -4.553044,4.806604 -9.166719,4.553056 -3.7593071,-0.209481 -4.2829561,-2.287556 -4.2829561,-3.709691 0,-0.33072 0.0276,-0.628385 0.05516,-0.854389 0,-0.0056 0,-0.0112 0,-0.0164 h -4.745968 c -0.595309,1.350478 -1.052818,2.640332 -1.328438,3.74827"
       id="path11402" />
    <path
       style="fill:#008285;fill-opacity:1;fill-rule:nonzero;stroke:none;stroke-width:1.41111"
       d="m 2.1247969,29.940108 c 0,0 0,0.0056 0,0.0112 -0.04404,0.165361 -0.0772,0.325201 -0.1102,0.485073 -0.0056,0.022 -0.0112,0.04952 -0.0164,0.0772 -0.0332,0.159841 -0.06068,0.319721 -0.08268,0.474049 0,0.0112 -0.0056,0.022 -0.0056,0.0332 -0.0276,0.18188 -0.04404,0.352761 -0.06068,0.518145 -0.0112,0.226 -0.022,0.446477 -0.0276,0.661461 -0.0384,3.213586 1.466235,4.894801 5.672014,4.773528 4.4869041,-0.12672 8.8415151,-3.841982 8.8415151,-3.841982 v 0.0112 l -1.212682,4.470367 13.003199,-6.338978 -2.067068,-5.082225 h -4.453828 c -0.0056,0.0056 -0.0056,0.0164 -0.0112,0.0276 -0.38584,0.766189 -4.553044,4.806604 -9.166719,4.553056 -3.7593071,-0.209481 -4.2829561,-2.287556 -4.2829561,-3.709691 0,-0.33072 0.0276,-0.628385 0.05516,-0.854389 0,-0.0056 0,-0.0112 0,-0.0164 h -4.745968 c -0.595309,1.350478 -1.052818,2.640332 -1.328438,3.74827"
       id="path11404" />
    <path
       style="fill:#f3b800;fill-opacity:1;fill-rule:nonzero;stroke:none;stroke-width:1.41111"
       d="m 1.9980249,30.513373 c 0.0056,-0.0276 0.0112,-0.05516 0.0164,-0.0772 -0.0056,0.022 -0.0112,0.04952 -0.0164,0.0772"
       id="path11406" />
    <path
       style="fill:#9ccfa8;fill-opacity:1;fill-rule:nonzero;stroke:none;stroke-width:1.41111"
       d="m 1.9980249,30.513373 c 0.0056,-0.0276 0.0112,-0.05516 0.0164,-0.0772 -0.0056,0.022 -0.0112,0.04952 -0.0164,0.0772"
       id="path11408" />
    <path
       style="fill:#008285;fill-opacity:1;fill-rule:nonzero;stroke:none;stroke-width:1.41111"
       d="m 1.9980249,30.513373 c 0.0056,-0.0276 0.0112,-0.05516 0.0164,-0.0772 -0.0056,0.022 -0.0112,0.04952 -0.0164,0.0772"
       id="path11410" />
    <path
       style="fill:#f3b800;fill-opacity:1;fill-rule:nonzero;stroke:none;stroke-width:1.41111"
       d="m 100.58304,30.353521 c 0.006,-0.15984 0.0164,-0.330721 0.0332,-0.490573 0,0 0.0882,-1.675699 0.14884,-3.67111 h -3.819921 l -0.23152,2.987597 c 0,0.0056 0,0.0056 0,0.0164 0,0.0882 -0.0164,0.617361 -0.57877,0.915022 -0.60634,0.31972 -1.46623,0.749657 -2.11117,1.036281 -0.56222,0.253561 -0.82681,-0.10472 -0.81027,-0.578769 0.006,-0.07168 0.0112,-0.14332 0.0276,-0.215 0.10472,-0.573265 0.39136,-2.353696 0.39136,-2.364716 0,0 0,0 0,-0.0056 0,-0.0164 -0.0164,-0.650425 1.00322,-1.251246 0.3142,-0.181921 0.65594,-0.369321 0.98116,-0.540205 h -4.4869 c -0.35828,0.34728 -0.57327,0.666977 -0.57327,0.666977 0,0 -1.02526,5.77123 -1.15203,7.050052 -0.0112,0.08268 -0.0164,0.15436 -0.0164,0.231521 -0.0112,1.118957 0.79375,1.653642 2.83324,1.234722 2.18283,-0.452005 5.45153,-2.568677 5.45153,-2.568677 0,0 0,1.223702 0.0607,1.923744 0.0662,0.705557 0.63942,0.898485 1.47175,0.1322 0.804761,-0.744138 4.580591,-4.63572 4.856211,-4.916841 -0.1764,0.0662 -1.82452,0.711074 -2.67341,1.014238 -0.67798,0.24252 -0.80477,-0.1322 -0.80477,-0.606341"
       id="path11412" />
    <path
       style="fill:#008285;fill-opacity:1;fill-rule:nonzero;stroke:none;stroke-width:1.41111"
       d="m 100.58304,30.353521 c 0.006,-0.15984 0.0164,-0.330721 0.0332,-0.490573 0,0 0.0882,-1.675699 0.14884,-3.67111 h -3.819921 l -0.23152,2.987597 c 0,0.0056 0,0.0056 0,0.0164 0,0.0882 -0.0164,0.617361 -0.57877,0.915022 -0.60634,0.31972 -1.46623,0.749657 -2.11117,1.036281 -0.56222,0.253561 -0.82681,-0.10472 -0.81027,-0.578769 0.006,-0.07168 0.0112,-0.14332 0.0276,-0.215 0.10472,-0.573265 0.39136,-2.353696 0.39136,-2.364716 0,0 0,0 0,-0.0056 0,-0.0164 -0.0164,-0.650425 1.00322,-1.251246 0.3142,-0.181921 0.65594,-0.369321 0.98116,-0.540205 h -4.4869 c -0.35828,0.34728 -0.57327,0.666977 -0.57327,0.666977 0,0 -1.02526,5.77123 -1.15203,7.050052 -0.0112,0.08268 -0.0164,0.15436 -0.0164,0.231521 -0.0112,1.118957 0.79375,1.653642 2.83324,1.234722 2.18283,-0.452005 5.45153,-2.568677 5.45153,-2.568677 0,0 0,1.223702 0.0607,1.923744 0.0662,0.705557 0.63942,0.898485 1.47175,0.1322 0.804761,-0.744138 4.580591,-4.63572 4.856211,-4.916841 -0.1764,0.0662 -1.82452,0.711074 -2.67341,1.014238 -0.67798,0.24252 -0.80477,-0.1322 -0.80477,-0.606341"
       id="path11414" />
    <g
       clip-path="url(#clip164)"
       clip-rule="nonzero"
       id="g11420"
       transform="matrix(1.4111136,0,0,1.4111136,-1231.5192,-879.82574)">
      <path
         style="fill:#ffffff;fill-opacity:1;fill-rule:nonzero;stroke:none"
         d="m 921.06641,634.89062 11.26562,-11.26562 -9.71875,12.19531 3.15625,-0.67969 -3.09375,1.42188 3.96094,0.30859 -4.76563,0.6836 0.42969,4.20703 -1.42187,-3.40235 -0.3086,2.78516 -0.30859,-2.66406 -3.46875,2.84765 2.66406,-3.46484 -2.60156,0.1875 2.35156,-0.74609 -5.44922,-0.74219 5.32813,-0.43359 -1.67578,-4.51954 2.85156,3.96094 0.0586,-2.90625 0.7461,2.22656"
         id="path11416" />
      <path
         style="fill:#000000;fill-opacity:1;fill-rule:nonzero;stroke:none"
         d="m 932.24219,623.53516 c 0,0 -10.83985,10.83593 -11.125,11.12109 -0.10547,-0.32422 -0.67578,-2.03516 -0.67578,-2.03516 -0.0195,-0.0586 -0.0781,-0.0937 -0.14063,-0.0859 -0.0586,0.0117 -0.10547,0.0625 -0.10547,0.125 0,0 -0.043,1.95312 -0.0547,2.52734 -0.375,-0.52344 -2.625,-3.65234 -2.625,-3.65234 -0.0391,-0.0508 -0.10937,-0.0664 -0.16406,-0.0391 -0.0391,0.0234 -0.0664,0.0703 -0.0664,0.11328 0,0.0156 0.004,0.0312 0.008,0.0469 0,0 1.50781,4.06641 1.61328,4.35937 -0.3125,0.0273 -5.15625,0.42188 -5.15625,0.42188 -0.0664,0.004 -0.11719,0.0586 -0.11719,0.12109 0,0.004 0,0.004 0,0.004 0,0.0625 0.0469,0.11719 0.10938,0.125 0,0 3.98437,0.54297 4.88672,0.66797 -0.64063,0.20312 -1.8125,0.57422 -1.8125,0.57422 -0.0547,0.0156 -0.0899,0.0625 -0.0899,0.12109 0,0.008 0.004,0.0156 0.004,0.0234 0.0117,0.0625 0.0703,0.10547 0.13281,0.10156 0,0 1.87109,-0.13281 2.32031,-0.16406 -0.30078,0.39062 -2.49218,3.24219 -2.49218,3.24219 -0.0156,0.0195 -0.0274,0.0469 -0.0274,0.0742 0,0.0352 0.0156,0.0664 0.0391,0.0937 0.0469,0.043 0.1211,0.0469 0.17188,0.008 0,0 2.96484,-2.4375 3.28516,-2.70313 0.043,0.38672 0.28515,2.4336 0.28515,2.4336 0.008,0.0625 0.0586,0.11328 0.125,0.11328 0.0664,0 0.11719,-0.0508 0.125,-0.11328 0,0 0.1836,-1.63672 0.25391,-2.30079 0.28515,0.67969 1.23437,2.95313 1.23437,2.95313 0.0274,0.0586 0.0899,0.0898 0.15235,0.0742 0.0547,-0.0156 0.0937,-0.0664 0.0937,-0.125 0,-0.004 -0.39844,-3.8711 -0.42188,-4.10156 0.23047,-0.0312 4.64844,-0.66407 4.64844,-0.66407 0.0625,-0.008 0.10937,-0.0625 0.10937,-0.125 0,0 0,-0.004 0,-0.004 -0.004,-0.0625 -0.0547,-0.11719 -0.12109,-0.1211 0,0 -2.72266,-0.21484 -3.47266,-0.26953 0.64844,-0.30078 2.65235,-1.22265 2.65235,-1.22265 0.043,-0.0195 0.0742,-0.0664 0.0742,-0.11329 0,-0.0156 -0.004,-0.0273 -0.008,-0.043 -0.0195,-0.0586 -0.082,-0.0977 -0.14843,-0.082 0,0 -2.25782,0.48829 -2.8086,0.60547 0.42188,-0.53125 9.5,-11.91797 9.5,-11.91797 0.0156,-0.0234 0.0274,-0.0508 0.0274,-0.0781 0,-0.0352 -0.0156,-0.0703 -0.043,-0.0977 -0.0508,-0.043 -0.12891,-0.0391 -0.17578,0.008 z m -11.08985,11.44531 c 0,0 7.32422,-7.32031 9.67578,-9.67188 -2.05859,2.58203 -8.3164,10.4336 -8.3164,10.4336 -0.0156,0.0234 -0.0273,0.0508 -0.0273,0.0781 0,0.0234 0.008,0.0469 0.0195,0.0664 0.0273,0.0469 0.082,0.0703 0.13671,0.0586 0,0 1.09375,-0.23828 2.02344,-0.4375 -0.91406,0.42188 -2.04297,0.94141 -2.04297,0.94141 -0.0469,0.0195 -0.0742,0.0664 -0.0742,0.11328 0,0.008 0,0.0156 0.004,0.0234 0.008,0.0586 0.0547,0.0976 0.11328,0.10156 0,0 1.65625,0.13281 2.81641,0.22266 -1.32031,0.1875 -3.62891,0.51953 -3.62891,0.51953 -0.0625,0.008 -0.10937,0.0625 -0.10937,0.125 0,0.004 0.23437,2.28125 0.34765,3.36718 -0.39062,-0.93359 -1.09375,-2.61328 -1.09375,-2.61328 -0.0234,-0.0508 -0.0781,-0.0859 -0.13672,-0.0781 -0.0547,0.0117 -0.10156,0.0547 -0.10546,0.11328 0,0 -0.0977,0.875 -0.1875,1.67578 -0.0899,-0.75391 -0.17969,-1.55078 -0.17969,-1.55078 -0.004,-0.0469 -0.0352,-0.0859 -0.0781,-0.10547 -0.043,-0.0156 -0.0937,-0.008 -0.1289,0.0195 0,0 -1.64063,1.34766 -2.60938,2.14453 0.75,-0.97656 1.98438,-2.58593 1.98438,-2.58593 0.0195,-0.0234 0.0273,-0.0508 0.0273,-0.0781 0,-0.0195 -0.004,-0.043 -0.0156,-0.0586 -0.0234,-0.0469 -0.0703,-0.0703 -0.1211,-0.0703 0,0 -0.78515,0.0586 -1.52344,0.10938 0.65235,-0.20313 1.32422,-0.41797 1.32422,-0.41797 0.0547,-0.0156 0.0899,-0.0664 0.0899,-0.12109 0,0 0,-0.004 0,-0.008 -0.008,-0.0625 -0.0508,-0.10937 -0.10938,-0.11718 0,0 -2.85937,-0.39063 -4.29297,-0.58594 1.42188,-0.11328 4.16016,-0.33594 4.16016,-0.33594 0.0391,-0.004 0.0742,-0.0273 0.0977,-0.0586 0.0117,-0.0195 0.0195,-0.0469 0.0195,-0.0703 0,-0.0156 0,-0.0274 -0.008,-0.043 0,0 -0.92187,-2.4961 -1.34765,-3.64063 0.71484,0.9961 2.30078,3.19922 2.30078,3.19922 0.0312,0.0469 0.0898,0.0664 0.14062,0.0469 0.0547,-0.0156 0.0898,-0.0625 0.0898,-0.11719 0,0 0.0273,-1.35547 0.0469,-2.17578 0.21875,0.66015 0.51172,1.53515 0.51172,1.53515 0.0117,0.0391 0.0469,0.0703 0.0899,0.082 0.043,0.0117 0.0898,-0.004 0.11718,-0.0352"
         id="path11418" />
    </g>
  </g>
</svg>
